<svg xmlns="http://www.w3.org/2000/svg" xmlns:xlink="http://www.w3.org/1999/xlink"
    style="margin:auto;background:#7aceff;display:block;z-index:1;position:relative" width="1920"
    height="1080" preserveAspectRatio="xMidYMid" viewBox="0 0 1920 1080">
    <g transform="translate(960,540) scale(1,1) translate(-960,-540)">
        <g transform="translate(-100 764.3739834699397) rotate(0)">
            <animateTransform attributeName="transform" type="translate" keyTimes="0;1"
                values="-100 764.3739834699397;1920 764.3739834699397" dur="66.66666666666667s"
                repeatCount="indefinite" begin="-7.817410852848136s"></animateTransform>
            <path
                d="M84.717,33.597c0.791-2.503,1.186-5.138,1.186-7.773C85.903,11.594,74.308,0,60.079,0 c-9.881,0-18.445,5.534-22.793,13.702c-1.581-0.527-3.426-0.791-5.138-0.791c-9.486,0-17.128,7.642-17.128,17.128 c0,1.186,0.132,2.372,0.395,3.426C6.719,34.783,0,42.424,0,51.515C0,61.66,8.169,69.829,18.314,69.829h63.373 C91.831,69.829,100,61.66,100,51.515C99.868,42.556,93.281,35.046,84.717,33.597z"
                fill="#bddeff" transform="scale(0.55)"></path>
        </g>
        <g transform="translate(-100 40.794255905338545) rotate(0)">
            <animateTransform attributeName="transform" type="translate" keyTimes="0;1"
                values="-100 40.794255905338545;1920 40.794255905338545" dur="66.66666666666667s"
                repeatCount="indefinite" begin="-51.882790570026394s"></animateTransform>
            <path
                d="M84.717,33.597c0.791-2.503,1.186-5.138,1.186-7.773C85.903,11.594,74.308,0,60.079,0 c-9.881,0-18.445,5.534-22.793,13.702c-1.581-0.527-3.426-0.791-5.138-0.791c-9.486,0-17.128,7.642-17.128,17.128 c0,1.186,0.132,2.372,0.395,3.426C6.719,34.783,0,42.424,0,51.515C0,61.66,8.169,69.829,18.314,69.829h63.373 C91.831,69.829,100,61.66,100,51.515C99.868,42.556,93.281,35.046,84.717,33.597z"
                fill="#bddeff" transform="scale(0.55)"></path>
        </g>
        <g transform="translate(-100 321.6598459473667) rotate(0)">
            <animateTransform attributeName="transform" type="translate" keyTimes="0;1"
                values="-100 321.6598459473667;1920 321.6598459473667" dur="66.66666666666667s"
                repeatCount="indefinite" begin="-8.836145399959857s"></animateTransform>
            <path
                d="M84.717,33.597c0.791-2.503,1.186-5.138,1.186-7.773C85.903,11.594,74.308,0,60.079,0 c-9.881,0-18.445,5.534-22.793,13.702c-1.581-0.527-3.426-0.791-5.138-0.791c-9.486,0-17.128,7.642-17.128,17.128 c0,1.186,0.132,2.372,0.395,3.426C6.719,34.783,0,42.424,0,51.515C0,61.66,8.169,69.829,18.314,69.829h63.373 C91.831,69.829,100,61.66,100,51.515C99.868,42.556,93.281,35.046,84.717,33.597z"
                fill="#bddeff" transform="scale(0.55)"></path>
        </g>
        <g transform="translate(-100 998.2707259230244) rotate(0)">
            <animateTransform attributeName="transform" type="translate" keyTimes="0;1"
                values="-100 998.2707259230244;1920 998.2707259230244" dur="66.66666666666667s"
                repeatCount="indefinite" begin="-30.00657598361758s"></animateTransform>
            <path
                d="M84.717,33.597c0.791-2.503,1.186-5.138,1.186-7.773C85.903,11.594,74.308,0,60.079,0 c-9.881,0-18.445,5.534-22.793,13.702c-1.581-0.527-3.426-0.791-5.138-0.791c-9.486,0-17.128,7.642-17.128,17.128 c0,1.186,0.132,2.372,0.395,3.426C6.719,34.783,0,42.424,0,51.515C0,61.66,8.169,69.829,18.314,69.829h63.373 C91.831,69.829,100,61.66,100,51.515C99.868,42.556,93.281,35.046,84.717,33.597z"
                fill="#bddeff" transform="scale(0.55)"></path>
        </g>
        <g transform="translate(-100 883.3164389674996) rotate(0)">
            <animateTransform attributeName="transform" type="translate" keyTimes="0;1"
                values="-100 883.3164389674996;1920 883.3164389674996" dur="66.66666666666667s"
                repeatCount="indefinite" begin="-59.62349479296546s"></animateTransform>
            <path
                d="M84.717,33.597c0.791-2.503,1.186-5.138,1.186-7.773C85.903,11.594,74.308,0,60.079,0 c-9.881,0-18.445,5.534-22.793,13.702c-1.581-0.527-3.426-0.791-5.138-0.791c-9.486,0-17.128,7.642-17.128,17.128 c0,1.186,0.132,2.372,0.395,3.426C6.719,34.783,0,42.424,0,51.515C0,61.66,8.169,69.829,18.314,69.829h63.373 C91.831,69.829,100,61.66,100,51.515C99.868,42.556,93.281,35.046,84.717,33.597z"
                fill="#bddeff" transform="scale(0.55)"></path>
        </g>
        <g transform="translate(-100 392.6065457026076) rotate(0)">
            <animateTransform attributeName="transform" type="translate" keyTimes="0;1"
                values="-100 392.6065457026076;1920 392.6065457026076" dur="66.66666666666667s"
                repeatCount="indefinite" begin="-3.9968689148182084s"></animateTransform>
            <path
                d="M84.717,33.597c0.791-2.503,1.186-5.138,1.186-7.773C85.903,11.594,74.308,0,60.079,0 c-9.881,0-18.445,5.534-22.793,13.702c-1.581-0.527-3.426-0.791-5.138-0.791c-9.486,0-17.128,7.642-17.128,17.128 c0,1.186,0.132,2.372,0.395,3.426C6.719,34.783,0,42.424,0,51.515C0,61.66,8.169,69.829,18.314,69.829h63.373 C91.831,69.829,100,61.66,100,51.515C99.868,42.556,93.281,35.046,84.717,33.597z"
                fill="#bddeff" transform="scale(0.55)"></path>
        </g>
        <g transform="translate(-100 501.22488793581726) rotate(0)">
            <animateTransform attributeName="transform" type="translate" keyTimes="0;1"
                values="-100 501.22488793581726;1920 501.22488793581726" dur="66.66666666666667s"
                repeatCount="indefinite" begin="-0.7332356188270921s"></animateTransform>
            <path
                d="M84.717,33.597c0.791-2.503,1.186-5.138,1.186-7.773C85.903,11.594,74.308,0,60.079,0 c-9.881,0-18.445,5.534-22.793,13.702c-1.581-0.527-3.426-0.791-5.138-0.791c-9.486,0-17.128,7.642-17.128,17.128 c0,1.186,0.132,2.372,0.395,3.426C6.719,34.783,0,42.424,0,51.515C0,61.66,8.169,69.829,18.314,69.829h63.373 C91.831,69.829,100,61.66,100,51.515C99.868,42.556,93.281,35.046,84.717,33.597z"
                fill="#bddeff" transform="scale(0.55)"></path>
        </g>
        <g transform="translate(-100 797.6295111242008) rotate(0)">
            <animateTransform attributeName="transform" type="translate" keyTimes="0;1"
                values="-100 797.6295111242008;1920 797.6295111242008" dur="66.66666666666667s"
                repeatCount="indefinite" begin="-17.846147276835882s"></animateTransform>
            <path
                d="M84.717,33.597c0.791-2.503,1.186-5.138,1.186-7.773C85.903,11.594,74.308,0,60.079,0 c-9.881,0-18.445,5.534-22.793,13.702c-1.581-0.527-3.426-0.791-5.138-0.791c-9.486,0-17.128,7.642-17.128,17.128 c0,1.186,0.132,2.372,0.395,3.426C6.719,34.783,0,42.424,0,51.515C0,61.66,8.169,69.829,18.314,69.829h63.373 C91.831,69.829,100,61.66,100,51.515C99.868,42.556,93.281,35.046,84.717,33.597z"
                fill="#bddeff" transform="scale(0.55)"></path>
        </g>
        <g transform="translate(-100 732.797855095558) rotate(0)">
            <animateTransform attributeName="transform" type="translate" keyTimes="0;1"
                values="-100 732.797855095558;1920 732.797855095558" dur="66.66666666666667s"
                repeatCount="indefinite" begin="-1.5877327692676988s"></animateTransform>
            <path
                d="M84.717,33.597c0.791-2.503,1.186-5.138,1.186-7.773C85.903,11.594,74.308,0,60.079,0 c-9.881,0-18.445,5.534-22.793,13.702c-1.581-0.527-3.426-0.791-5.138-0.791c-9.486,0-17.128,7.642-17.128,17.128 c0,1.186,0.132,2.372,0.395,3.426C6.719,34.783,0,42.424,0,51.515C0,61.66,8.169,69.829,18.314,69.829h63.373 C91.831,69.829,100,61.66,100,51.515C99.868,42.556,93.281,35.046,84.717,33.597z"
                fill="#bddeff" transform="scale(0.55)"></path>
        </g>
        <g transform="translate(-100 1037.7951536730038) rotate(0)">
            <animateTransform attributeName="transform" type="translate" keyTimes="0;1"
                values="-100 1037.7951536730038;1920 1037.7951536730038" dur="66.66666666666667s"
                repeatCount="indefinite" begin="-10.838543268015188s"></animateTransform>
            <path
                d="M84.717,33.597c0.791-2.503,1.186-5.138,1.186-7.773C85.903,11.594,74.308,0,60.079,0 c-9.881,0-18.445,5.534-22.793,13.702c-1.581-0.527-3.426-0.791-5.138-0.791c-9.486,0-17.128,7.642-17.128,17.128 c0,1.186,0.132,2.372,0.395,3.426C6.719,34.783,0,42.424,0,51.515C0,61.66,8.169,69.829,18.314,69.829h63.373 C91.831,69.829,100,61.66,100,51.515C99.868,42.556,93.281,35.046,84.717,33.597z"
                fill="#bddeff" transform="scale(0.55)"></path>
        </g>
        <g transform="translate(-100 41.42593528175692) rotate(0)">
            <animateTransform attributeName="transform" type="translate" keyTimes="0;1"
                values="-100 41.42593528175692;1920 41.42593528175692" dur="66.66666666666667s"
                repeatCount="indefinite" begin="-7.097604565906491s"></animateTransform>
            <path
                d="M84.717,33.597c0.791-2.503,1.186-5.138,1.186-7.773C85.903,11.594,74.308,0,60.079,0 c-9.881,0-18.445,5.534-22.793,13.702c-1.581-0.527-3.426-0.791-5.138-0.791c-9.486,0-17.128,7.642-17.128,17.128 c0,1.186,0.132,2.372,0.395,3.426C6.719,34.783,0,42.424,0,51.515C0,61.66,8.169,69.829,18.314,69.829h63.373 C91.831,69.829,100,61.66,100,51.515C99.868,42.556,93.281,35.046,84.717,33.597z"
                fill="#bddeff" transform="scale(0.55)"></path>
        </g>
        <g transform="translate(-100 591.6934102799966) rotate(0)">
            <animateTransform attributeName="transform" type="translate" keyTimes="0;1"
                values="-100 591.6934102799966;1920 591.6934102799966" dur="33.333333333333336s"
                repeatCount="indefinite" begin="-3.3493651311223913s"></animateTransform>
            <path
                d="M84.717,33.597c0.791-2.503,1.186-5.138,1.186-7.773C85.903,11.594,74.308,0,60.079,0 c-9.881,0-18.445,5.534-22.793,13.702c-1.581-0.527-3.426-0.791-5.138-0.791c-9.486,0-17.128,7.642-17.128,17.128 c0,1.186,0.132,2.372,0.395,3.426C6.719,34.783,0,42.424,0,51.515C0,61.66,8.169,69.829,18.314,69.829h63.373 C91.831,69.829,100,61.66,100,51.515C99.868,42.556,93.281,35.046,84.717,33.597z"
                fill="#ffffff" transform="scale(0.7)"></path>
        </g>
        <g transform="translate(-100 458.08380832237197) rotate(0)">
            <animateTransform attributeName="transform" type="translate" keyTimes="0;1"
                values="-100 458.08380832237197;1920 458.08380832237197" dur="33.333333333333336s"
                repeatCount="indefinite" begin="-47.19355159599538s"></animateTransform>
            <path
                d="M84.717,33.597c0.791-2.503,1.186-5.138,1.186-7.773C85.903,11.594,74.308,0,60.079,0 c-9.881,0-18.445,5.534-22.793,13.702c-1.581-0.527-3.426-0.791-5.138-0.791c-9.486,0-17.128,7.642-17.128,17.128 c0,1.186,0.132,2.372,0.395,3.426C6.719,34.783,0,42.424,0,51.515C0,61.66,8.169,69.829,18.314,69.829h63.373 C91.831,69.829,100,61.66,100,51.515C99.868,42.556,93.281,35.046,84.717,33.597z"
                fill="#ffffff" transform="scale(0.7)"></path>
        </g>
        <g transform="translate(-100 948.9283449941761) rotate(0)">
            <animateTransform attributeName="transform" type="translate" keyTimes="0;1"
                values="-100 948.9283449941761;1920 948.9283449941761" dur="33.333333333333336s"
                repeatCount="indefinite" begin="-4.9673697358090685s"></animateTransform>
            <path
                d="M84.717,33.597c0.791-2.503,1.186-5.138,1.186-7.773C85.903,11.594,74.308,0,60.079,0 c-9.881,0-18.445,5.534-22.793,13.702c-1.581-0.527-3.426-0.791-5.138-0.791c-9.486,0-17.128,7.642-17.128,17.128 c0,1.186,0.132,2.372,0.395,3.426C6.719,34.783,0,42.424,0,51.515C0,61.66,8.169,69.829,18.314,69.829h63.373 C91.831,69.829,100,61.66,100,51.515C99.868,42.556,93.281,35.046,84.717,33.597z"
                fill="#ffffff" transform="scale(0.7)"></path>
        </g>
        <g transform="translate(-100 584.0799299175458) rotate(0)">
            <animateTransform attributeName="transform" type="translate" keyTimes="0;1"
                values="-100 584.0799299175458;1920 584.0799299175458" dur="33.333333333333336s"
                repeatCount="indefinite" begin="-21.99396596456961s"></animateTransform>
            <path
                d="M84.717,33.597c0.791-2.503,1.186-5.138,1.186-7.773C85.903,11.594,74.308,0,60.079,0 c-9.881,0-18.445,5.534-22.793,13.702c-1.581-0.527-3.426-0.791-5.138-0.791c-9.486,0-17.128,7.642-17.128,17.128 c0,1.186,0.132,2.372,0.395,3.426C6.719,34.783,0,42.424,0,51.515C0,61.66,8.169,69.829,18.314,69.829h63.373 C91.831,69.829,100,61.66,100,51.515C99.868,42.556,93.281,35.046,84.717,33.597z"
                fill="#ffffff" transform="scale(0.7)"></path>
        </g>
        <g transform="translate(-100 253.31264721767565) rotate(0)">
            <animateTransform attributeName="transform" type="translate" keyTimes="0;1"
                values="-100 253.31264721767565;1920 253.31264721767565" dur="33.333333333333336s"
                repeatCount="indefinite" begin="-20.86551532919958s"></animateTransform>
            <path
                d="M84.717,33.597c0.791-2.503,1.186-5.138,1.186-7.773C85.903,11.594,74.308,0,60.079,0 c-9.881,0-18.445,5.534-22.793,13.702c-1.581-0.527-3.426-0.791-5.138-0.791c-9.486,0-17.128,7.642-17.128,17.128 c0,1.186,0.132,2.372,0.395,3.426C6.719,34.783,0,42.424,0,51.515C0,61.66,8.169,69.829,18.314,69.829h63.373 C91.831,69.829,100,61.66,100,51.515C99.868,42.556,93.281,35.046,84.717,33.597z"
                fill="#ffffff" transform="scale(0.7)"></path>
        </g>
        <g transform="translate(-100 962.0408857665399) rotate(0)">
            <animateTransform attributeName="transform" type="translate" keyTimes="0;1"
                values="-100 962.0408857665399;1920 962.0408857665399" dur="33.333333333333336s"
                repeatCount="indefinite" begin="-43.75146074164272s"></animateTransform>
            <path
                d="M84.717,33.597c0.791-2.503,1.186-5.138,1.186-7.773C85.903,11.594,74.308,0,60.079,0 c-9.881,0-18.445,5.534-22.793,13.702c-1.581-0.527-3.426-0.791-5.138-0.791c-9.486,0-17.128,7.642-17.128,17.128 c0,1.186,0.132,2.372,0.395,3.426C6.719,34.783,0,42.424,0,51.515C0,61.66,8.169,69.829,18.314,69.829h63.373 C91.831,69.829,100,61.66,100,51.515C99.868,42.556,93.281,35.046,84.717,33.597z"
                fill="#ffffff" transform="scale(0.7)"></path>
        </g>
        <g transform="translate(-100 804.4460356514411) rotate(0)">
            <animateTransform attributeName="transform" type="translate" keyTimes="0;1"
                values="-100 804.4460356514411;1920 804.4460356514411" dur="33.333333333333336s"
                repeatCount="indefinite" begin="-12.334150131815388s"></animateTransform>
            <path
                d="M84.717,33.597c0.791-2.503,1.186-5.138,1.186-7.773C85.903,11.594,74.308,0,60.079,0 c-9.881,0-18.445,5.534-22.793,13.702c-1.581-0.527-3.426-0.791-5.138-0.791c-9.486,0-17.128,7.642-17.128,17.128 c0,1.186,0.132,2.372,0.395,3.426C6.719,34.783,0,42.424,0,51.515C0,61.66,8.169,69.829,18.314,69.829h63.373 C91.831,69.829,100,61.66,100,51.515C99.868,42.556,93.281,35.046,84.717,33.597z"
                fill="#ffffff" transform="scale(0.7)"></path>
        </g>
        <g transform="translate(-100 939.5944818033915) rotate(0)">
            <animateTransform attributeName="transform" type="translate" keyTimes="0;1"
                values="-100 939.5944818033915;1920 939.5944818033915" dur="33.333333333333336s"
                repeatCount="indefinite" begin="-33.373572198440904s"></animateTransform>
            <path
                d="M84.717,33.597c0.791-2.503,1.186-5.138,1.186-7.773C85.903,11.594,74.308,0,60.079,0 c-9.881,0-18.445,5.534-22.793,13.702c-1.581-0.527-3.426-0.791-5.138-0.791c-9.486,0-17.128,7.642-17.128,17.128 c0,1.186,0.132,2.372,0.395,3.426C6.719,34.783,0,42.424,0,51.515C0,61.66,8.169,69.829,18.314,69.829h63.373 C91.831,69.829,100,61.66,100,51.515C99.868,42.556,93.281,35.046,84.717,33.597z"
                fill="#ffffff" transform="scale(0.7)"></path>
        </g>
        <g transform="translate(-100 52.40988333736966) rotate(0)">
            <animateTransform attributeName="transform" type="translate" keyTimes="0;1"
                values="-100 52.40988333736966;1920 52.40988333736966" dur="33.333333333333336s"
                repeatCount="indefinite" begin="-8.575003256622765s"></animateTransform>
            <path
                d="M84.717,33.597c0.791-2.503,1.186-5.138,1.186-7.773C85.903,11.594,74.308,0,60.079,0 c-9.881,0-18.445,5.534-22.793,13.702c-1.581-0.527-3.426-0.791-5.138-0.791c-9.486,0-17.128,7.642-17.128,17.128 c0,1.186,0.132,2.372,0.395,3.426C6.719,34.783,0,42.424,0,51.515C0,61.66,8.169,69.829,18.314,69.829h63.373 C91.831,69.829,100,61.66,100,51.515C99.868,42.556,93.281,35.046,84.717,33.597z"
                fill="#ffffff" transform="scale(0.7)"></path>
        </g>
        <g transform="translate(-100 1066.6944820976814) rotate(0)">
            <animateTransform attributeName="transform" type="translate" keyTimes="0;1"
                values="-100 1066.6944820976814;1920 1066.6944820976814" dur="33.333333333333336s"
                repeatCount="indefinite" begin="-62.92007181985124s"></animateTransform>
            <path
                d="M84.717,33.597c0.791-2.503,1.186-5.138,1.186-7.773C85.903,11.594,74.308,0,60.079,0 c-9.881,0-18.445,5.534-22.793,13.702c-1.581-0.527-3.426-0.791-5.138-0.791c-9.486,0-17.128,7.642-17.128,17.128 c0,1.186,0.132,2.372,0.395,3.426C6.719,34.783,0,42.424,0,51.515C0,61.66,8.169,69.829,18.314,69.829h63.373 C91.831,69.829,100,61.66,100,51.515C99.868,42.556,93.281,35.046,84.717,33.597z"
                fill="#ffffff" transform="scale(0.7)"></path>
        </g>
        <g transform="translate(-100 550.6708782370639) rotate(0)">
            <animateTransform attributeName="transform" type="translate" keyTimes="0;1"
                values="-100 550.6708782370639;1920 550.6708782370639" dur="33.333333333333336s"
                repeatCount="indefinite" begin="-25.99829874008005s"></animateTransform>
            <path
                d="M84.717,33.597c0.791-2.503,1.186-5.138,1.186-7.773C85.903,11.594,74.308,0,60.079,0 c-9.881,0-18.445,5.534-22.793,13.702c-1.581-0.527-3.426-0.791-5.138-0.791c-9.486,0-17.128,7.642-17.128,17.128 c0,1.186,0.132,2.372,0.395,3.426C6.719,34.783,0,42.424,0,51.515C0,61.66,8.169,69.829,18.314,69.829h63.373 C91.831,69.829,100,61.66,100,51.515C99.868,42.556,93.281,35.046,84.717,33.597z"
                fill="#ffffff" transform="scale(0.7)"></path>
        </g>
        <g transform="translate(-100 598.7658547587617) rotate(0)">
            <animateTransform attributeName="transform" type="translate" keyTimes="0;1"
                values="-100 598.7658547587617;1920 598.7658547587617" dur="22.222222222222225s"
                repeatCount="indefinite" begin="-38.55672281698265s"></animateTransform>
            <path
                d="M84.717,33.597c0.791-2.503,1.186-5.138,1.186-7.773C85.903,11.594,74.308,0,60.079,0 c-9.881,0-18.445,5.534-22.793,13.702c-1.581-0.527-3.426-0.791-5.138-0.791c-9.486,0-17.128,7.642-17.128,17.128 c0,1.186,0.132,2.372,0.395,3.426C6.719,34.783,0,42.424,0,51.515C0,61.66,8.169,69.829,18.314,69.829h63.373 C91.831,69.829,100,61.66,100,51.515C99.868,42.556,93.281,35.046,84.717,33.597z"
                fill="#f1f2f3" transform="scale(0.85)"></path>
        </g>
        <g transform="translate(-100 1069.4858958540708) rotate(0)">
            <animateTransform attributeName="transform" type="translate" keyTimes="0;1"
                values="-100 1069.4858958540708;1920 1069.4858958540708" dur="22.222222222222225s"
                repeatCount="indefinite" begin="-35.155120714890636s"></animateTransform>
            <path
                d="M84.717,33.597c0.791-2.503,1.186-5.138,1.186-7.773C85.903,11.594,74.308,0,60.079,0 c-9.881,0-18.445,5.534-22.793,13.702c-1.581-0.527-3.426-0.791-5.138-0.791c-9.486,0-17.128,7.642-17.128,17.128 c0,1.186,0.132,2.372,0.395,3.426C6.719,34.783,0,42.424,0,51.515C0,61.66,8.169,69.829,18.314,69.829h63.373 C91.831,69.829,100,61.66,100,51.515C99.868,42.556,93.281,35.046,84.717,33.597z"
                fill="#f1f2f3" transform="scale(0.85)"></path>
        </g>
        <g transform="translate(-100 248.99471608340843) rotate(0)">
            <animateTransform attributeName="transform" type="translate" keyTimes="0;1"
                values="-100 248.99471608340843;1920 248.99471608340843" dur="22.222222222222225s"
                repeatCount="indefinite" begin="-17.586864351712027s"></animateTransform>
            <path
                d="M84.717,33.597c0.791-2.503,1.186-5.138,1.186-7.773C85.903,11.594,74.308,0,60.079,0 c-9.881,0-18.445,5.534-22.793,13.702c-1.581-0.527-3.426-0.791-5.138-0.791c-9.486,0-17.128,7.642-17.128,17.128 c0,1.186,0.132,2.372,0.395,3.426C6.719,34.783,0,42.424,0,51.515C0,61.66,8.169,69.829,18.314,69.829h63.373 C91.831,69.829,100,61.66,100,51.515C99.868,42.556,93.281,35.046,84.717,33.597z"
                fill="#f1f2f3" transform="scale(0.85)"></path>
        </g>
        <g transform="translate(-100 654.0691156937096) rotate(0)">
            <animateTransform attributeName="transform" type="translate" keyTimes="0;1"
                values="-100 654.0691156937096;1920 654.0691156937096" dur="22.222222222222225s"
                repeatCount="indefinite" begin="-37.06225107145239s"></animateTransform>
            <path
                d="M84.717,33.597c0.791-2.503,1.186-5.138,1.186-7.773C85.903,11.594,74.308,0,60.079,0 c-9.881,0-18.445,5.534-22.793,13.702c-1.581-0.527-3.426-0.791-5.138-0.791c-9.486,0-17.128,7.642-17.128,17.128 c0,1.186,0.132,2.372,0.395,3.426C6.719,34.783,0,42.424,0,51.515C0,61.66,8.169,69.829,18.314,69.829h63.373 C91.831,69.829,100,61.66,100,51.515C99.868,42.556,93.281,35.046,84.717,33.597z"
                fill="#f1f2f3" transform="scale(0.85)"></path>
        </g>
        <g transform="translate(-100 544.930272427063) rotate(0)">
            <animateTransform attributeName="transform" type="translate" keyTimes="0;1"
                values="-100 544.930272427063;1920 544.930272427063" dur="22.222222222222225s"
                repeatCount="indefinite" begin="-38.252301452016326s"></animateTransform>
            <path
                d="M84.717,33.597c0.791-2.503,1.186-5.138,1.186-7.773C85.903,11.594,74.308,0,60.079,0 c-9.881,0-18.445,5.534-22.793,13.702c-1.581-0.527-3.426-0.791-5.138-0.791c-9.486,0-17.128,7.642-17.128,17.128 c0,1.186,0.132,2.372,0.395,3.426C6.719,34.783,0,42.424,0,51.515C0,61.66,8.169,69.829,18.314,69.829h63.373 C91.831,69.829,100,61.66,100,51.515C99.868,42.556,93.281,35.046,84.717,33.597z"
                fill="#f1f2f3" transform="scale(0.85)"></path>
        </g>
        <g transform="translate(-100 659.8899196029632) rotate(0)">
            <animateTransform attributeName="transform" type="translate" keyTimes="0;1"
                values="-100 659.8899196029632;1920 659.8899196029632" dur="22.222222222222225s"
                repeatCount="indefinite" begin="-44.329465597566184s"></animateTransform>
            <path
                d="M84.717,33.597c0.791-2.503,1.186-5.138,1.186-7.773C85.903,11.594,74.308,0,60.079,0 c-9.881,0-18.445,5.534-22.793,13.702c-1.581-0.527-3.426-0.791-5.138-0.791c-9.486,0-17.128,7.642-17.128,17.128 c0,1.186,0.132,2.372,0.395,3.426C6.719,34.783,0,42.424,0,51.515C0,61.66,8.169,69.829,18.314,69.829h63.373 C91.831,69.829,100,61.66,100,51.515C99.868,42.556,93.281,35.046,84.717,33.597z"
                fill="#f1f2f3" transform="scale(0.85)"></path>
        </g>
        <g transform="translate(-100 526.2512350686279) rotate(0)">
            <animateTransform attributeName="transform" type="translate" keyTimes="0;1"
                values="-100 526.2512350686279;1920 526.2512350686279" dur="22.222222222222225s"
                repeatCount="indefinite" begin="-24.463849450006222s"></animateTransform>
            <path
                d="M84.717,33.597c0.791-2.503,1.186-5.138,1.186-7.773C85.903,11.594,74.308,0,60.079,0 c-9.881,0-18.445,5.534-22.793,13.702c-1.581-0.527-3.426-0.791-5.138-0.791c-9.486,0-17.128,7.642-17.128,17.128 c0,1.186,0.132,2.372,0.395,3.426C6.719,34.783,0,42.424,0,51.515C0,61.66,8.169,69.829,18.314,69.829h63.373 C91.831,69.829,100,61.66,100,51.515C99.868,42.556,93.281,35.046,84.717,33.597z"
                fill="#f1f2f3" transform="scale(0.85)"></path>
        </g>
        <g transform="translate(-100 443.0977195091005) rotate(0)">
            <animateTransform attributeName="transform" type="translate" keyTimes="0;1"
                values="-100 443.0977195091005;1920 443.0977195091005" dur="22.222222222222225s"
                repeatCount="indefinite" begin="-40.55297309979412s"></animateTransform>
            <path
                d="M84.717,33.597c0.791-2.503,1.186-5.138,1.186-7.773C85.903,11.594,74.308,0,60.079,0 c-9.881,0-18.445,5.534-22.793,13.702c-1.581-0.527-3.426-0.791-5.138-0.791c-9.486,0-17.128,7.642-17.128,17.128 c0,1.186,0.132,2.372,0.395,3.426C6.719,34.783,0,42.424,0,51.515C0,61.66,8.169,69.829,18.314,69.829h63.373 C91.831,69.829,100,61.66,100,51.515C99.868,42.556,93.281,35.046,84.717,33.597z"
                fill="#f1f2f3" transform="scale(0.85)"></path>
        </g>
        <g transform="translate(-100 60.1187748087697) rotate(0)">
            <animateTransform attributeName="transform" type="translate" keyTimes="0;1"
                values="-100 60.1187748087697;1920 60.1187748087697" dur="22.222222222222225s"
                repeatCount="indefinite" begin="-45.75430740769184s"></animateTransform>
            <path
                d="M84.717,33.597c0.791-2.503,1.186-5.138,1.186-7.773C85.903,11.594,74.308,0,60.079,0 c-9.881,0-18.445,5.534-22.793,13.702c-1.581-0.527-3.426-0.791-5.138-0.791c-9.486,0-17.128,7.642-17.128,17.128 c0,1.186,0.132,2.372,0.395,3.426C6.719,34.783,0,42.424,0,51.515C0,61.66,8.169,69.829,18.314,69.829h63.373 C91.831,69.829,100,61.66,100,51.515C99.868,42.556,93.281,35.046,84.717,33.597z"
                fill="#f1f2f3" transform="scale(0.85)"></path>
        </g>
        <g transform="translate(-100 211.58982800682662) rotate(0)">
            <animateTransform attributeName="transform" type="translate" keyTimes="0;1"
                values="-100 211.58982800682662;1920 211.58982800682662" dur="22.222222222222225s"
                repeatCount="indefinite" begin="-14.738632155052564s"></animateTransform>
            <path
                d="M84.717,33.597c0.791-2.503,1.186-5.138,1.186-7.773C85.903,11.594,74.308,0,60.079,0 c-9.881,0-18.445,5.534-22.793,13.702c-1.581-0.527-3.426-0.791-5.138-0.791c-9.486,0-17.128,7.642-17.128,17.128 c0,1.186,0.132,2.372,0.395,3.426C6.719,34.783,0,42.424,0,51.515C0,61.66,8.169,69.829,18.314,69.829h63.373 C91.831,69.829,100,61.66,100,51.515C99.868,42.556,93.281,35.046,84.717,33.597z"
                fill="#f1f2f3" transform="scale(0.85)"></path>
        </g>
        <g transform="translate(-100 434.25808548817383) rotate(0)">
            <animateTransform attributeName="transform" type="translate" keyTimes="0;1"
                values="-100 434.25808548817383;1920 434.25808548817383" dur="22.222222222222225s"
                repeatCount="indefinite" begin="-52.36404116052877s"></animateTransform>
            <path
                d="M84.717,33.597c0.791-2.503,1.186-5.138,1.186-7.773C85.903,11.594,74.308,0,60.079,0 c-9.881,0-18.445,5.534-22.793,13.702c-1.581-0.527-3.426-0.791-5.138-0.791c-9.486,0-17.128,7.642-17.128,17.128 c0,1.186,0.132,2.372,0.395,3.426C6.719,34.783,0,42.424,0,51.515C0,61.66,8.169,69.829,18.314,69.829h63.373 C91.831,69.829,100,61.66,100,51.515C99.868,42.556,93.281,35.046,84.717,33.597z"
                fill="#f1f2f3" transform="scale(0.85)"></path>
        </g>
        <g transform="translate(-100 478.76561733994464) rotate(0)">
            <animateTransform attributeName="transform" type="translate" keyTimes="0;1"
                values="-100 478.76561733994464;1920 478.76561733994464" dur="16.666666666666668s"
                repeatCount="indefinite" begin="-37.079588306335864s"></animateTransform>
            <path
                d="M84.717,33.597c0.791-2.503,1.186-5.138,1.186-7.773C85.903,11.594,74.308,0,60.079,0 c-9.881,0-18.445,5.534-22.793,13.702c-1.581-0.527-3.426-0.791-5.138-0.791c-9.486,0-17.128,7.642-17.128,17.128 c0,1.186,0.132,2.372,0.395,3.426C6.719,34.783,0,42.424,0,51.515C0,61.66,8.169,69.829,18.314,69.829h63.373 C91.831,69.829,100,61.66,100,51.515C99.868,42.556,93.281,35.046,84.717,33.597z"
                fill="#bddeff" transform="scale(1)"></path>
        </g>
        <g transform="translate(-100 521.9927783342044) rotate(0)">
            <animateTransform attributeName="transform" type="translate" keyTimes="0;1"
                values="-100 521.9927783342044;1920 521.9927783342044" dur="16.666666666666668s"
                repeatCount="indefinite" begin="-49.648855286011084s"></animateTransform>
            <path
                d="M84.717,33.597c0.791-2.503,1.186-5.138,1.186-7.773C85.903,11.594,74.308,0,60.079,0 c-9.881,0-18.445,5.534-22.793,13.702c-1.581-0.527-3.426-0.791-5.138-0.791c-9.486,0-17.128,7.642-17.128,17.128 c0,1.186,0.132,2.372,0.395,3.426C6.719,34.783,0,42.424,0,51.515C0,61.66,8.169,69.829,18.314,69.829h63.373 C91.831,69.829,100,61.66,100,51.515C99.868,42.556,93.281,35.046,84.717,33.597z"
                fill="#bddeff" transform="scale(1)"></path>
        </g>
        <g transform="translate(-100 373.6666248873167) rotate(0)">
            <animateTransform attributeName="transform" type="translate" keyTimes="0;1"
                values="-100 373.6666248873167;1920 373.6666248873167" dur="16.666666666666668s"
                repeatCount="indefinite" begin="-17.922548721930482s"></animateTransform>
            <path
                d="M84.717,33.597c0.791-2.503,1.186-5.138,1.186-7.773C85.903,11.594,74.308,0,60.079,0 c-9.881,0-18.445,5.534-22.793,13.702c-1.581-0.527-3.426-0.791-5.138-0.791c-9.486,0-17.128,7.642-17.128,17.128 c0,1.186,0.132,2.372,0.395,3.426C6.719,34.783,0,42.424,0,51.515C0,61.66,8.169,69.829,18.314,69.829h63.373 C91.831,69.829,100,61.66,100,51.515C99.868,42.556,93.281,35.046,84.717,33.597z"
                fill="#bddeff" transform="scale(1)"></path>
        </g>
        <g transform="translate(-100 585.7575920393032) rotate(0)">
            <animateTransform attributeName="transform" type="translate" keyTimes="0;1"
                values="-100 585.7575920393032;1920 585.7575920393032" dur="16.666666666666668s"
                repeatCount="indefinite" begin="-10.656911513673947s"></animateTransform>
            <path
                d="M84.717,33.597c0.791-2.503,1.186-5.138,1.186-7.773C85.903,11.594,74.308,0,60.079,0 c-9.881,0-18.445,5.534-22.793,13.702c-1.581-0.527-3.426-0.791-5.138-0.791c-9.486,0-17.128,7.642-17.128,17.128 c0,1.186,0.132,2.372,0.395,3.426C6.719,34.783,0,42.424,0,51.515C0,61.66,8.169,69.829,18.314,69.829h63.373 C91.831,69.829,100,61.66,100,51.515C99.868,42.556,93.281,35.046,84.717,33.597z"
                fill="#bddeff" transform="scale(1)"></path>
        </g>
        <g transform="translate(-100 138.42173051045023) rotate(0)">
            <animateTransform attributeName="transform" type="translate" keyTimes="0;1"
                values="-100 138.42173051045023;1920 138.42173051045023" dur="16.666666666666668s"
                repeatCount="indefinite" begin="-24.71788681634017s"></animateTransform>
            <path
                d="M84.717,33.597c0.791-2.503,1.186-5.138,1.186-7.773C85.903,11.594,74.308,0,60.079,0 c-9.881,0-18.445,5.534-22.793,13.702c-1.581-0.527-3.426-0.791-5.138-0.791c-9.486,0-17.128,7.642-17.128,17.128 c0,1.186,0.132,2.372,0.395,3.426C6.719,34.783,0,42.424,0,51.515C0,61.66,8.169,69.829,18.314,69.829h63.373 C91.831,69.829,100,61.66,100,51.515C99.868,42.556,93.281,35.046,84.717,33.597z"
                fill="#bddeff" transform="scale(1)"></path>
        </g>
        <g transform="translate(-100 270.20300166783574) rotate(0)">
            <animateTransform attributeName="transform" type="translate" keyTimes="0;1"
                values="-100 270.20300166783574;1920 270.20300166783574" dur="16.666666666666668s"
                repeatCount="indefinite" begin="-17.867362989156856s"></animateTransform>
            <path
                d="M84.717,33.597c0.791-2.503,1.186-5.138,1.186-7.773C85.903,11.594,74.308,0,60.079,0 c-9.881,0-18.445,5.534-22.793,13.702c-1.581-0.527-3.426-0.791-5.138-0.791c-9.486,0-17.128,7.642-17.128,17.128 c0,1.186,0.132,2.372,0.395,3.426C6.719,34.783,0,42.424,0,51.515C0,61.66,8.169,69.829,18.314,69.829h63.373 C91.831,69.829,100,61.66,100,51.515C99.868,42.556,93.281,35.046,84.717,33.597z"
                fill="#bddeff" transform="scale(1)"></path>
        </g>
        <g transform="translate(-100 548.2147945135083) rotate(0)">
            <animateTransform attributeName="transform" type="translate" keyTimes="0;1"
                values="-100 548.2147945135083;1920 548.2147945135083" dur="16.666666666666668s"
                repeatCount="indefinite" begin="-22.317811919944s"></animateTransform>
            <path
                d="M84.717,33.597c0.791-2.503,1.186-5.138,1.186-7.773C85.903,11.594,74.308,0,60.079,0 c-9.881,0-18.445,5.534-22.793,13.702c-1.581-0.527-3.426-0.791-5.138-0.791c-9.486,0-17.128,7.642-17.128,17.128 c0,1.186,0.132,2.372,0.395,3.426C6.719,34.783,0,42.424,0,51.515C0,61.66,8.169,69.829,18.314,69.829h63.373 C91.831,69.829,100,61.66,100,51.515C99.868,42.556,93.281,35.046,84.717,33.597z"
                fill="#bddeff" transform="scale(1)"></path>
        </g>
        <g transform="translate(-100 193.85979978244507) rotate(0)">
            <animateTransform attributeName="transform" type="translate" keyTimes="0;1"
                values="-100 193.85979978244507;1920 193.85979978244507" dur="16.666666666666668s"
                repeatCount="indefinite" begin="-38.00875302784457s"></animateTransform>
            <path
                d="M84.717,33.597c0.791-2.503,1.186-5.138,1.186-7.773C85.903,11.594,74.308,0,60.079,0 c-9.881,0-18.445,5.534-22.793,13.702c-1.581-0.527-3.426-0.791-5.138-0.791c-9.486,0-17.128,7.642-17.128,17.128 c0,1.186,0.132,2.372,0.395,3.426C6.719,34.783,0,42.424,0,51.515C0,61.66,8.169,69.829,18.314,69.829h63.373 C91.831,69.829,100,61.66,100,51.515C99.868,42.556,93.281,35.046,84.717,33.597z"
                fill="#bddeff" transform="scale(1)"></path>
        </g>
        <g transform="translate(-100 176.1865655728665) rotate(0)">
            <animateTransform attributeName="transform" type="translate" keyTimes="0;1"
                values="-100 176.1865655728665;1920 176.1865655728665" dur="16.666666666666668s"
                repeatCount="indefinite" begin="-41.49837431954966s"></animateTransform>
            <path
                d="M84.717,33.597c0.791-2.503,1.186-5.138,1.186-7.773C85.903,11.594,74.308,0,60.079,0 c-9.881,0-18.445,5.534-22.793,13.702c-1.581-0.527-3.426-0.791-5.138-0.791c-9.486,0-17.128,7.642-17.128,17.128 c0,1.186,0.132,2.372,0.395,3.426C6.719,34.783,0,42.424,0,51.515C0,61.66,8.169,69.829,18.314,69.829h63.373 C91.831,69.829,100,61.66,100,51.515C99.868,42.556,93.281,35.046,84.717,33.597z"
                fill="#bddeff" transform="scale(1)"></path>
        </g>
        <g transform="translate(-100 1029.80229601705) rotate(0)">
            <animateTransform attributeName="transform" type="translate" keyTimes="0;1"
                values="-100 1029.80229601705;1920 1029.80229601705" dur="16.666666666666668s"
                repeatCount="indefinite" begin="-24.527599266356386s"></animateTransform>
            <path
                d="M84.717,33.597c0.791-2.503,1.186-5.138,1.186-7.773C85.903,11.594,74.308,0,60.079,0 c-9.881,0-18.445,5.534-22.793,13.702c-1.581-0.527-3.426-0.791-5.138-0.791c-9.486,0-17.128,7.642-17.128,17.128 c0,1.186,0.132,2.372,0.395,3.426C6.719,34.783,0,42.424,0,51.515C0,61.66,8.169,69.829,18.314,69.829h63.373 C91.831,69.829,100,61.66,100,51.515C99.868,42.556,93.281,35.046,84.717,33.597z"
                fill="#bddeff" transform="scale(1)"></path>
        </g>
        <g transform="translate(-100 399.33505145732806) rotate(0)">
            <animateTransform attributeName="transform" type="translate" keyTimes="0;1"
                values="-100 399.33505145732806;1920 399.33505145732806" dur="16.666666666666668s"
                repeatCount="indefinite" begin="-23.493044384261097s"></animateTransform>
            <path
                d="M84.717,33.597c0.791-2.503,1.186-5.138,1.186-7.773C85.903,11.594,74.308,0,60.079,0 c-9.881,0-18.445,5.534-22.793,13.702c-1.581-0.527-3.426-0.791-5.138-0.791c-9.486,0-17.128,7.642-17.128,17.128 c0,1.186,0.132,2.372,0.395,3.426C6.719,34.783,0,42.424,0,51.515C0,61.66,8.169,69.829,18.314,69.829h63.373 C91.831,69.829,100,61.66,100,51.515C99.868,42.556,93.281,35.046,84.717,33.597z"
                fill="#bddeff" transform="scale(1)"></path>
        </g>
        <g transform="translate(-100 384.2605041164346) rotate(0)">
            <animateTransform attributeName="transform" type="translate" keyTimes="0;1"
                values="-100 384.2605041164346;1920 384.2605041164346" dur="16.666666666666668s"
                repeatCount="indefinite" begin="-44.50061916913808s"></animateTransform>
            <path
                d="M84.717,33.597c0.791-2.503,1.186-5.138,1.186-7.773C85.903,11.594,74.308,0,60.079,0 c-9.881,0-18.445,5.534-22.793,13.702c-1.581-0.527-3.426-0.791-5.138-0.791c-9.486,0-17.128,7.642-17.128,17.128 c0,1.186,0.132,2.372,0.395,3.426C6.719,34.783,0,42.424,0,51.515C0,61.66,8.169,69.829,18.314,69.829h63.373 C91.831,69.829,100,61.66,100,51.515C99.868,42.556,93.281,35.046,84.717,33.597z"
                fill="#bddeff" transform="scale(1)"></path>
        </g>
    </g>
</svg>