<svg xmlns="http://www.w3.org/2000/svg" xmlns:xlink="http://www.w3.org/1999/xlink"
    style="margin:auto;background:#f1f2f3;display:block;z-index:1;position:relative" width="1920"
    height="1080" preserveAspectRatio="xMidYMid" viewBox="0 0 1920 1080">
    <g transform="translate(960,540) scale(1,1) translate(-960,-540)">
        <defs>
            <path id="path-nncsdufnthh-1" d="M-35 -35L35 -35L35 35L-35 35Z" fill="none"
                stroke="inherit" stroke-width="6.666666666666667" transform="scale(0.3)"></path>
            <path id="path-nncsdufnthh-2" d="M0 -37A37 37 0 0 1 0 37A37 37 0 0 1 0 -37" fill="none"
                stroke="inherit" stroke-width="6.666666666666667" transform="scale(0.3)"></path>
            <path id="path-nncsdufnthh-3" d="M0 -34.641L40 34.641L-40 34.641Z" fill="none"
                stroke="inherit" stroke-width="6.666666666666667" transform="scale(0.3)"></path>
        </defs>
        <path id="path0"
            d="M 49.87898223943749 866.1077347588567
c 0 30.16784631782196 -7.381494311807501 8.665232452991415 -16.046726764798915 8.665232452991415
S 17.785528709839657 896.2755810766787 17.785528709839657 866.1077347588567
s 7.381494311807501 -8.665232452991415 16.046726764798915 -8.665232452991415
S 49.87898223943749 835.9398884410348 49.87898223943749 866.1077347588567
z"
            fill="none" stroke="none"></path>
        <use xlink:href="#path-nncsdufnthh-1" x="0" y="0" stroke="#826b88">
            <animateMotion begin="-1.3486439586103722s" dur="5.4945054945054945s" keyPoints="1;0"
                keyTimes="0;1" repeatCount="indefinite" calcMode="linear">
                <mpath xlink:href="#path0"></mpath>
            </animateMotion>
        </use>
        <path id="path1"
            d="M 93.640321487728 218.35030613400914
c 0 25.348702763022974 -6.202342165420514 7.281010368102344 -13.483352533522858 7.281010368102344
S 66.67361642068228 243.69900889703212 66.67361642068228 218.35030613400914
s 6.202342165420514 -7.281010368102344 13.483352533522858 -7.281010368102344
S 93.640321487728 193.00160337098617 93.640321487728 218.35030613400914
z"
            fill="none" stroke="none"></path>
        <use xlink:href="#path-nncsdufnthh-1" x="0" y="0" stroke="#376888">
            <animateMotion begin="-2.5418452767031137s" dur="5.4945054945054945s" keyPoints="0;1"
                keyTimes="0;1" repeatCount="indefinite" calcMode="linear">
                <mpath xlink:href="#path1"></mpath>
            </animateMotion>
        </use>
        <path id="path2"
            d="M 118.28724769562398 1015.960658001738
c 0 33.74831843372304 -8.257567276336488 9.693665933090662 -17.951233209427148 9.693665933090662
S 82.38478127676969 1049.708976435461 82.38478127676969 1015.960658001738
s 8.257567276336488 -9.693665933090662 17.951233209427148 -9.693665933090662
S 118.28724769562398 982.212339568015 118.28724769562398 1015.960658001738
z"
            fill="none" stroke="none"></path>
        <use xlink:href="#path-nncsdufnthh-3" x="0" y="0" stroke="#8cd0e5">
            <animateMotion begin="-2.648563926910787s" dur="5.4945054945054945s" keyPoints="0;1"
                keyTimes="0;1" repeatCount="indefinite" calcMode="linear">
                <mpath xlink:href="#path2"></mpath>
            </animateMotion>
        </use>
        <path id="path3"
            d="M 148.04892850528108 26.486014128446616
c 0 30.703281081817405 -7.512504945551067 8.81902754477734 -16.331532490328406 8.81902754477734
S 115.38586352462426 57.18929521026402 115.38586352462426 26.486014128446616
s 7.512504945551067 -8.81902754477734 16.331532490328406 -8.81902754477734
S 148.04892850528108 -4.217266953370789 148.04892850528108 26.486014128446616
z"
            fill="none" stroke="none"></path>
        <use xlink:href="#path-nncsdufnthh-3" x="0" y="0" stroke="#8cd0e5">
            <animateMotion begin="-2.8038240662619915s" dur="5.4945054945054945s" keyPoints="0;1"
                keyTimes="0;1" repeatCount="indefinite" calcMode="linear">
                <mpath xlink:href="#path3"></mpath>
            </animateMotion>
        </use>
        <path id="path4"
            d="M 188.28940299571468 369.26255907022374
c 0 24.61073459688357 -6.021775486471511 7.069040788466557 -13.090816274938069 7.069040788466557
S 162.10777044583853 393.8732936671073 162.10777044583853 369.26255907022374
s 6.021775486471511 -7.069040788466557 13.090816274938069 -7.069040788466557
S 188.28940299571468 344.6518244733402 188.28940299571468 369.26255907022374
z"
            fill="none" stroke="none"></path>
        <use xlink:href="#path-nncsdufnthh-1" x="0" y="0" stroke="#826b88">
            <animateMotion begin="-2.3178871656375577s" dur="5.4945054945054945s" keyPoints="1;0"
                keyTimes="0;1" repeatCount="indefinite" calcMode="linear">
                <mpath xlink:href="#path4"></mpath>
            </animateMotion>
        </use>
        <path id="path5"
            d="M 217.92794358227894 858.5871288467692
c 0 50.877521613632055 -12.448755288441884 14.613756208170908 -27.062511496612792 14.613756208170908
S 163.80292058905337 909.4646504604013 163.80292058905337 858.5871288467692
s 12.448755288441884 -14.613756208170908 27.062511496612792 -14.613756208170908
S 217.92794358227894 807.7096072331371 217.92794358227894 858.5871288467692
z"
            fill="none" stroke="none"></path>
        <use xlink:href="#path-nncsdufnthh-3" x="0" y="0" stroke="#8cd0e5">
            <animateMotion begin="-1.2089389228897853s" dur="5.4945054945054945s" keyPoints="1;0"
                keyTimes="0;1" repeatCount="indefinite" calcMode="linear">
                <mpath xlink:href="#path5"></mpath>
            </animateMotion>
        </use>
        <path id="path6"
            d="M 260.9870419336077 814.8048686980826
c 0 63.39975130093967 -15.512705105549067 18.21056686303586 -33.72327196858493 18.21056686303586
S 193.54049799643786 878.2046199990223 193.54049799643786 814.8048686980826
s 15.512705105549067 -18.21056686303586 33.72327196858493 -18.21056686303586
S 260.9870419336077 751.4051173971429 260.9870419336077 814.8048686980826
z"
            fill="none" stroke="none"></path>
        <use xlink:href="#path-nncsdufnthh-2" x="0" y="0" stroke="#826b88">
            <animateMotion begin="-0.545114429473298s" dur="5.4945054945054945s" keyPoints="1;0"
                keyTimes="0;1" repeatCount="indefinite" calcMode="linear">
                <mpath xlink:href="#path6"></mpath>
            </animateMotion>
        </use>
        <path id="path7"
            d="M 269.8092736339924 352.74369803990675
c 0 34.48370251371773 -8.437501678888381 9.904893275216796 -18.342394954105178 9.904893275216796
S 233.12448372578206 387.2274005536245 233.12448372578206 352.74369803990675
s 8.437501678888381 -9.904893275216796 18.342394954105178 -9.904893275216796
S 269.8092736339924 318.259995526189 269.8092736339924 352.74369803990675
z"
            fill="none" stroke="none"></path>
        <use xlink:href="#path-nncsdufnthh-2" x="0" y="0" stroke="#376888">
            <animateMotion begin="-1.0443540414890584s" dur="5.4945054945054945s" keyPoints="1;0"
                keyTimes="0;1" repeatCount="indefinite" calcMode="linear">
                <mpath xlink:href="#path7"></mpath>
            </animateMotion>
        </use>
        <path id="path8"
            d="M 331.18806362182306 219.44715499175433
c 0 49.51279516052151 -12.114832858425475 14.22176031206469 -26.336593170490165 14.22176031206469
S 278.5148772808427 268.95995015227584 278.5148772808427 219.44715499175433
s 12.114832858425475 -14.22176031206469 26.336593170490165 -14.22176031206469
S 331.18806362182306 169.93435983123283 331.18806362182306 219.44715499175433
z"
            fill="none" stroke="none"></path>
        <use xlink:href="#path-nncsdufnthh-3" x="0" y="0" stroke="#376888">
            <animateMotion begin="-4.6832314965985065s" dur="5.4945054945054945s" keyPoints="0;1"
                keyTimes="0;1" repeatCount="indefinite" calcMode="linear">
                <mpath xlink:href="#path8"></mpath>
            </animateMotion>
        </use>
        <path id="path9"
            d="M 354.6879274382042 235.90153590083574
c 0 64.50507626126142 -15.783156957542687 18.528053819724025 -34.311210777266716 18.528053819724025
S 286.0655058836708 300.4066121620972 286.0655058836708 235.90153590083574
s 15.783156957542687 -18.528053819724025 34.311210777266716 -18.528053819724025
S 354.6879274382042 171.39645963957432 354.6879274382042 235.90153590083574
z"
            fill="none" stroke="none"></path>
        <use xlink:href="#path-nncsdufnthh-2" x="0" y="0" stroke="#8cd0e5">
            <animateMotion begin="-1.950921073421896s" dur="5.4945054945054945s" keyPoints="1;0"
                keyTimes="0;1" repeatCount="indefinite" calcMode="linear">
                <mpath xlink:href="#path9"></mpath>
            </animateMotion>
        </use>
        <path id="path10"
            d="M 395.4460215807094 51.115647844284126
c 0 59.240379376704084 -14.494986443236105 17.015853650755428 -31.510840093991533 17.015853650755428
S 332.4243413927263 110.35602722098821 332.4243413927263 51.115647844284126
s 14.494986443236105 -17.015853650755428 31.510840093991533 -17.015853650755428
S 395.4460215807094 -8.124731532419958 395.4460215807094 51.115647844284126
z"
            fill="none" stroke="none"></path>
        <use xlink:href="#path-nncsdufnthh-3" x="0" y="0" stroke="#376888">
            <animateMotion begin="-2.7211715011535365s" dur="5.4945054945054945s" keyPoints="1;0"
                keyTimes="0;1" repeatCount="indefinite" calcMode="linear">
                <mpath xlink:href="#path10"></mpath>
            </animateMotion>
        </use>
        <path id="path11"
            d="M 425.2558654465859 698.8078351301143
c 0 59.27676591930321 -14.503889533446529 17.02630510448071 -31.530194637927238 17.02630510448071
S 362.1954761707314 758.0846010494175 362.1954761707314 698.8078351301143
s 14.503889533446529 -17.02630510448071 31.530194637927238 -17.02630510448071
S 425.2558654465859 639.5310692108111 425.2558654465859 698.8078351301143
z"
            fill="none" stroke="none"></path>
        <use xlink:href="#path-nncsdufnthh-3" x="0" y="0" stroke="#826b88">
            <animateMotion begin="-3.025390748701662s" dur="5.4945054945054945s" keyPoints="0;1"
                keyTimes="0;1" repeatCount="indefinite" calcMode="linear">
                <mpath xlink:href="#path11"></mpath>
            </animateMotion>
        </use>
        <path id="path12"
            d="M 419.48938402985226 418.8112074625984
c 0 35.08647959647874 -8.584989688500118 10.07803137345666 -18.663021061956776 10.07803137345666
S 382.1633419059387 453.89768705907716 382.1633419059387 418.8112074625984
s 8.584989688500118 -10.07803137345666 18.663021061956776 -10.07803137345666
S 419.48938402985226 383.7247278661197 419.48938402985226 418.8112074625984
z"
            fill="none" stroke="none"></path>
        <use xlink:href="#path-nncsdufnthh-2" x="0" y="0" stroke="#826b88">
            <animateMotion begin="-2.239768311148344s" dur="5.4945054945054945s" keyPoints="1;0"
                keyTimes="0;1" repeatCount="indefinite" calcMode="linear">
                <mpath xlink:href="#path12"></mpath>
            </animateMotion>
        </use>
        <path id="path13"
            d="M 478.31929823129144 980.7612281539001
c 0 39.92085804401085 -9.767869521406908 11.466629438173328 -21.234498959580236 11.466629438173328
S 435.8503003121309 1020.682086197911 435.8503003121309 980.7612281539001
s 9.767869521406908 -11.466629438173328 21.234498959580236 -11.466629438173328
S 478.31929823129144 940.8403701098892 478.31929823129144 980.7612281539001
z"
            fill="none" stroke="none"></path>
        <use xlink:href="#path-nncsdufnthh-3" x="0" y="0" stroke="#8cd0e5">
            <animateMotion begin="-1.0855125843801343s" dur="5.4945054945054945s" keyPoints="1;0"
                keyTimes="0;1" repeatCount="indefinite" calcMode="linear">
                <mpath xlink:href="#path13"></mpath>
            </animateMotion>
        </use>
        <path id="path14"
            d="M 502.7507702803224 310.9803360087936
c 0 58.40117292731579 -14.289648694981521 16.77480498976092 -31.06445368474244 16.77480498976092
S 440.62186291083754 369.38150893610936 440.62186291083754 310.9803360087936
s 14.289648694981521 -16.77480498976092 31.06445368474244 -16.77480498976092
S 502.7507702803224 252.5791630814778 502.7507702803224 310.9803360087936
z"
            fill="none" stroke="none"></path>
        <use xlink:href="#path-nncsdufnthh-2" x="0" y="0" stroke="#826b88">
            <animateMotion begin="-3.665254956588038s" dur="5.4945054945054945s" keyPoints="1;0"
                keyTimes="0;1" repeatCount="indefinite" calcMode="linear">
                <mpath xlink:href="#path14"></mpath>
            </animateMotion>
        </use>
        <path id="path15"
            d="M 502.95536192279843 114.17212739316933
c 0 20.429996943472286 -4.998829039360239 5.86819061142289 -10.86701965078313 5.86819061142289
S 481.2213226212322 134.60212433664162 481.2213226212322 114.17212739316933
s 4.998829039360239 -5.86819061142289 10.86701965078313 -5.86819061142289
S 502.95536192279843 93.74213044969704 502.95536192279843 114.17212739316933
z"
            fill="none" stroke="none"></path>
        <use xlink:href="#path-nncsdufnthh-1" x="0" y="0" stroke="#826b88">
            <animateMotion begin="-1.1716226752390897s" dur="5.4945054945054945s" keyPoints="1;0"
                keyTimes="0;1" repeatCount="indefinite" calcMode="linear">
                <mpath xlink:href="#path15"></mpath>
            </animateMotion>
        </use>
        <path id="path16"
            d="M 576.0554026584255 796.8562016479436
c 0 63.89709226473658 -15.634394915839799 18.35342011859455 -33.98781503443435 18.35342011859455
S 508.0797725895568 860.7532939126802 508.0797725895568 796.8562016479436
s 15.634394915839799 -18.35342011859455 33.98781503443435 -18.35342011859455
S 576.0554026584255 732.9591093832071 576.0554026584255 796.8562016479436
z"
            fill="none" stroke="none"></path>
        <use xlink:href="#path-nncsdufnthh-3" x="0" y="0" stroke="#8cd0e5">
            <animateMotion begin="-4.995843523736339s" dur="5.4945054945054945s" keyPoints="0;1"
                keyTimes="0;1" repeatCount="indefinite" calcMode="linear">
                <mpath xlink:href="#path16"></mpath>
            </animateMotion>
        </use>
        <path id="path17"
            d="M 582.0408102784928 802.5858690801571
c 0 40.399772844800474 -9.885050802451179 11.60419007244269 -21.48924087489387 11.60419007244269
S 539.062328528705 842.9856419249576 539.062328528705 802.5858690801571
s 9.885050802451179 -11.60419007244269 21.48924087489387 -11.60419007244269
S 582.0408102784928 762.1860962353566 582.0408102784928 802.5858690801571
z"
            fill="none" stroke="none"></path>
        <use xlink:href="#path-nncsdufnthh-2" x="0" y="0" stroke="#8cd0e5">
            <animateMotion begin="-5.354315198394256s" dur="5.4945054945054945s" keyPoints="0;1"
                keyTimes="0;1" repeatCount="indefinite" calcMode="linear">
                <mpath xlink:href="#path17"></mpath>
            </animateMotion>
        </use>
        <path id="path18"
            d="M 616.603604144132 859.5259399821895
c 0 44.189860791342014 -10.812412746817726 12.692832354959942 -23.505245101777668 12.692832354959942
S 569.5931139405767 903.7158007735314 569.5931139405767 859.5259399821895
s 10.812412746817726 -12.692832354959942 23.505245101777668 -12.692832354959942
S 616.603604144132 815.3360791908475 616.603604144132 859.5259399821895
z"
            fill="none" stroke="none"></path>
        <use xlink:href="#path-nncsdufnthh-2" x="0" y="0" stroke="#376888">
            <animateMotion begin="-3.4177935842946785s" dur="5.4945054945054945s" keyPoints="1;0"
                keyTimes="0;1" repeatCount="indefinite" calcMode="linear">
                <mpath xlink:href="#path18"></mpath>
            </animateMotion>
        </use>
        <path id="path19"
            d="M 634.0102490404013 541.3288478158422
c 0 26.57901743466834 -6.503376606355019 7.634398624851545 -14.137775231206565 7.634398624851545
S 605.7346985779882 567.9078652505106 605.7346985779882 541.3288478158422
s 6.503376606355019 -7.634398624851545 14.137775231206565 -7.634398624851545
S 634.0102490404013 514.7498303811739 634.0102490404013 541.3288478158422
z"
            fill="none" stroke="none"></path>
        <use xlink:href="#path-nncsdufnthh-2" x="0" y="0" stroke="#826b88">
            <animateMotion begin="-2.0729799758130882s" dur="5.4945054945054945s" keyPoints="0;1"
                keyTimes="0;1" repeatCount="indefinite" calcMode="linear">
                <mpath xlink:href="#path19"></mpath>
            </animateMotion>
        </use>
        <path id="path20"
            d="M 680.2465722025448 530.5611422391801
c 0 29.354488056115247 -7.182481120113304 8.431608271437359 -15.614089391550664 8.431608271437359
S 649.0183934194434 559.9156302952953 649.0183934194434 530.5611422391801
s 7.182481120113304 -8.431608271437359 15.614089391550664 -8.431608271437359
S 680.2465722025448 501.2066541830648 680.2465722025448 530.5611422391801
z"
            fill="none" stroke="none"></path>
        <use xlink:href="#path-nncsdufnthh-2" x="0" y="0" stroke="#8cd0e5">
            <animateMotion begin="-5.487604705933405s" dur="5.4945054945054945s" keyPoints="0;1"
                keyTimes="0;1" repeatCount="indefinite" calcMode="linear">
                <mpath xlink:href="#path20"></mpath>
            </animateMotion>
        </use>
        <path id="path21"
            d="M 713.5832221991327 522.5475055168397
c 0 30.650141870400628 -7.499502798076748 8.80376415426401 -16.303266952340756 8.80376415426401
S 680.9766882944512 553.1976473872403 680.9766882944512 522.5475055168397
s 7.499502798076748 -8.80376415426401 16.303266952340756 -8.80376415426401
S 713.5832221991327 491.8973636464391 713.5832221991327 522.5475055168397
z"
            fill="none" stroke="none"></path>
        <use xlink:href="#path-nncsdufnthh-3" x="0" y="0" stroke="#826b88">
            <animateMotion begin="-3.094992566573985s" dur="5.4945054945054945s" keyPoints="0;1"
                keyTimes="0;1" repeatCount="indefinite" calcMode="linear">
                <mpath xlink:href="#path21"></mpath>
            </animateMotion>
        </use>
        <path id="path22"
            d="M 728.3232807448632 205.43815454549969
c 0 26.604830046330566 -6.509692458144713 7.641812885648141 -14.151505343792854 7.641812885648141
S 700.0202700572773 232.04298459183025 700.0202700572773 205.43815454549969
s 6.509692458144713 -7.641812885648141 14.151505343792854 -7.641812885648141
S 728.3232807448632 178.83332449916912 728.3232807448632 205.43815454549969
z"
            fill="none" stroke="none"></path>
        <use xlink:href="#path-nncsdufnthh-2" x="0" y="0" stroke="#376888">
            <animateMotion begin="-2.63695403861093s" dur="5.4945054945054945s" keyPoints="0;1"
                keyTimes="0;1" repeatCount="indefinite" calcMode="linear">
                <mpath xlink:href="#path22"></mpath>
            </animateMotion>
        </use>
        <path id="path23"
            d="M 772.5654608653193 456.4895415685645
c 0 52.769977853317506 -12.911803091769174 15.157334064250772 -28.06913715601995 15.157334064250772
S 716.4271865532795 509.25951942188203 716.4271865532795 456.4895415685645
s 12.911803091769174 -15.157334064250772 28.06913715601995 -15.157334064250772
S 772.5654608653193 403.719563715247 772.5654608653193 456.4895415685645
z"
            fill="none" stroke="none"></path>
        <use xlink:href="#path-nncsdufnthh-1" x="0" y="0" stroke="#826b88">
            <animateMotion begin="-0.5648802885026365s" dur="5.4945054945054945s" keyPoints="0;1"
                keyTimes="0;1" repeatCount="indefinite" calcMode="linear">
                <mpath xlink:href="#path23"></mpath>
            </animateMotion>
        </use>
        <path id="path24"
            d="M 809.590038697236 972.4725539641837
c 0 38.89132436240406 -9.515962343992483 11.170912316860742 -20.686874660853224 11.170912316860742
S 768.2162893755294 1011.3638783265877 768.2162893755294 972.4725539641837
s 9.515962343992483 -11.170912316860742 20.686874660853224 -11.170912316860742
S 809.590038697236 933.5812296017797 809.590038697236 972.4725539641837
z"
            fill="none" stroke="none"></path>
        <use xlink:href="#path-nncsdufnthh-2" x="0" y="0" stroke="#826b88">
            <animateMotion begin="-1.6896467180357324s" dur="5.4945054945054945s" keyPoints="1;0"
                keyTimes="0;1" repeatCount="indefinite" calcMode="linear">
                <mpath xlink:href="#path24"></mpath>
            </animateMotion>
        </use>
        <path id="path25"
            d="M 839.6460435589571 418.5510992434065
c 0 27.258523430209014 -6.669638711646885 7.829575878889823 -14.49921459053671 7.829575878889823
S 810.6476143778838 445.80962267361554 810.6476143778838 418.5510992434065
s 6.669638711646885 -7.829575878889823 14.49921459053671 -7.829575878889823
S 839.6460435589571 391.29257581319746 839.6460435589571 418.5510992434065
z"
            fill="none" stroke="none"></path>
        <use xlink:href="#path-nncsdufnthh-3" x="0" y="0" stroke="#826b88">
            <animateMotion begin="-1.363307224024396s" dur="5.4945054945054945s" keyPoints="1;0"
                keyTimes="0;1" repeatCount="indefinite" calcMode="linear">
                <mpath xlink:href="#path25"></mpath>
            </animateMotion>
        </use>
        <path id="path26"
            d="M 876.4407749636807 426.9614532425573
c 0 54.67322079131857 -13.377490193620499 15.704010227293631 -29.081500420914132 15.704010227293631
S 818.2777741218524 481.63467403387585 818.2777741218524 426.9614532425573
s 13.377490193620499 -15.704010227293631 29.081500420914132 -15.704010227293631
S 876.4407749636807 372.28823245123874 876.4407749636807 426.9614532425573
z"
            fill="none" stroke="none"></path>
        <use xlink:href="#path-nncsdufnthh-2" x="0" y="0" stroke="#826b88">
            <animateMotion begin="-1.1583643398291021s" dur="5.4945054945054945s" keyPoints="1;0"
                keyTimes="0;1" repeatCount="indefinite" calcMode="linear">
                <mpath xlink:href="#path26"></mpath>
            </animateMotion>
        </use>
        <path id="path27"
            d="M 918.6589859262957 244.19959083635086
c 0 46.28410191927347 -11.324833448332868 13.294369700216848 -24.619203148549715 13.294369700216848
S 869.4205796291964 290.48369275562436 869.4205796291964 244.19959083635086
s 11.324833448332868 -13.294369700216848 24.619203148549715 -13.294369700216848
S 918.6589859262957 197.9154889170774 918.6589859262957 244.19959083635086
z"
            fill="none" stroke="none"></path>
        <use xlink:href="#path-nncsdufnthh-3" x="0" y="0" stroke="#8cd0e5">
            <animateMotion begin="-0.44824453613309395s" dur="5.4945054945054945s" keyPoints="0;1"
                keyTimes="0;1" repeatCount="indefinite" calcMode="linear">
                <mpath xlink:href="#path27"></mpath>
            </animateMotion>
        </use>
        <path id="path28"
            d="M 936.6248731230904 882.5027027226806
c 0 22.099525546318375 -5.4073307187800275 6.347736061176555 -11.755066779956582 6.347736061176555
S 913.1147395631773 904.6022282689989 913.1147395631773 882.5027027226806
s 5.4073307187800275 -6.347736061176555 11.755066779956582 -6.347736061176555
S 936.6248731230904 860.4031771763623 936.6248731230904 882.5027027226806
z"
            fill="none" stroke="none"></path>
        <use xlink:href="#path-nncsdufnthh-3" x="0" y="0" stroke="#826b88">
            <animateMotion begin="-1.5787876899568845s" dur="5.4945054945054945s" keyPoints="1;0"
                keyTimes="0;1" repeatCount="indefinite" calcMode="linear">
                <mpath xlink:href="#path28"></mpath>
            </animateMotion>
        </use>
        <path id="path29"
            d="M 973.623612107621 137.02762430998945
c 0 49.5109304121102 -12.114376590197175 14.221224692840165 -26.33560128303734 14.221224692840165
S 920.9524095415463 186.53855472209966 920.9524095415463 137.02762430998945
s 12.114376590197175 -14.221224692840165 26.33560128303734 -14.221224692840165
S 973.623612107621 87.51669389787925 973.623612107621 137.02762430998945
z"
            fill="none" stroke="none"></path>
        <use xlink:href="#path-nncsdufnthh-1" x="0" y="0" stroke="#826b88">
            <animateMotion begin="-1.9111384644367035s" dur="5.4945054945054945s" keyPoints="0;1"
                keyTimes="0;1" repeatCount="indefinite" calcMode="linear">
                <mpath xlink:href="#path29"></mpath>
            </animateMotion>
        </use>
        <path id="path30"
            d="M 1021.2147535773472 321.87367782080446
c 0 65.68540495864764 -16.071960787754207 18.867084403015813 -34.93904519077002 18.867084403015813
S 951.3366631958072 387.55908277945207 951.3366631958072 321.87367782080446
s 16.071960787754207 -18.867084403015813 34.93904519077002 -18.867084403015813
S 1021.2147535773472 256.18827286215685 1021.2147535773472 321.87367782080446
z"
            fill="none" stroke="none"></path>
        <use xlink:href="#path-nncsdufnthh-3" x="0" y="0" stroke="#826b88">
            <animateMotion begin="-5.1484611401039535s" dur="5.4945054945054945s" keyPoints="0;1"
                keyTimes="0;1" repeatCount="indefinite" calcMode="linear">
                <mpath xlink:href="#path30"></mpath>
            </animateMotion>
        </use>
        <path id="path31"
            d="M 1019.0002132382556 926.3378530907441
c 0 51.14560159988075 -12.514349327630395 14.690757906348727 -27.20510723397912 14.690757906348727
S 964.5899987702974 977.4834546906249 964.5899987702974 926.3378530907441
s 12.514349327630395 -14.690757906348727 27.20510723397912 -14.690757906348727
S 1019.0002132382556 875.1922514908634 1019.0002132382556 926.3378530907441
z"
            fill="none" stroke="none"></path>
        <use xlink:href="#path-nncsdufnthh-3" x="0" y="0" stroke="#826b88">
            <animateMotion begin="-1.6538021878505706s" dur="5.4945054945054945s" keyPoints="1;0"
                keyTimes="0;1" repeatCount="indefinite" calcMode="linear">
                <mpath xlink:href="#path31"></mpath>
            </animateMotion>
        </use>
        <path id="path32"
            d="M 1059.788021841228 580.3256986914281
c 0 53.774317775316035 -13.157545838641155 15.445814680143968 -28.603360518785124 15.445814680143968
S 1002.5813008036578 634.1000164667441 1002.5813008036578 580.3256986914281
s 13.157545838641155 -15.445814680143968 28.603360518785124 -15.445814680143968
S 1059.788021841228 526.5513809161121 1059.788021841228 580.3256986914281
z"
            fill="none" stroke="none"></path>
        <use xlink:href="#path-nncsdufnthh-3" x="0" y="0" stroke="#376888">
            <animateMotion begin="-1.1362800325026676s" dur="5.4945054945054945s" keyPoints="1;0"
                keyTimes="0;1" repeatCount="indefinite" calcMode="linear">
                <mpath xlink:href="#path32"></mpath>
            </animateMotion>
        </use>
        <path id="path33"
            d="M 1103.0759076959944 303.48169949311523
c 0 48.39578517186535 -11.841521903754286 13.900917017450686 -25.742438921204972 13.900917017450686
S 1051.5910298535846 351.87748466498056 1051.5910298535846 303.48169949311523
s 11.841521903754286 -13.900917017450686 25.742438921204972 -13.900917017450686
S 1103.0759076959944 255.08591432124987 1103.0759076959944 303.48169949311523
z"
            fill="none" stroke="none"></path>
        <use xlink:href="#path-nncsdufnthh-1" x="0" y="0" stroke="#826b88">
            <animateMotion begin="-4.02604348546012s" dur="5.4945054945054945s" keyPoints="0;1"
                keyTimes="0;1" repeatCount="indefinite" calcMode="linear">
                <mpath xlink:href="#path33"></mpath>
            </animateMotion>
        </use>
        <path id="path34"
            d="M 1137.7965066411127 440.5729945861059
c 0 60.99255194663429 -14.923709518857324 17.519137261267296 -32.44284678012462 17.519137261267296
S 1072.9108130808634 501.5655465327402 1072.9108130808634 440.5729945861059
s 14.923709518857324 -17.519137261267296 32.44284678012462 -17.519137261267296
S 1137.7965066411127 379.5804426394716 1137.7965066411127 440.5729945861059
z"
            fill="none" stroke="none"></path>
        <use xlink:href="#path-nncsdufnthh-2" x="0" y="0" stroke="#376888">
            <animateMotion begin="-2.820632968682281s" dur="5.4945054945054945s" keyPoints="0;1"
                keyTimes="0;1" repeatCount="indefinite" calcMode="linear">
                <mpath xlink:href="#path34"></mpath>
            </animateMotion>
        </use>
        <path id="path35"
            d="M 1167.515474861822 512.5884385218999
c 0 46.58822094292552 -11.399245549864753 13.381723036797755 -24.78096858666251 13.381723036797755
S 1117.953537688497 559.1766594648254 1117.953537688497 512.5884385218999
s 11.399245549864753 -13.381723036797755 24.78096858666251 -13.381723036797755
S 1167.515474861822 466.00021757897434 1167.515474861822 512.5884385218999
z"
            fill="none" stroke="none"></path>
        <use xlink:href="#path-nncsdufnthh-2" x="0" y="0" stroke="#826b88">
            <animateMotion begin="-2.2855049297570824s" dur="5.4945054945054945s" keyPoints="0;1"
                keyTimes="0;1" repeatCount="indefinite" calcMode="linear">
                <mpath xlink:href="#path35"></mpath>
            </animateMotion>
        </use>
        <path id="path36"
            d="M 1174.557627357768 455.1565786146821
c 0 40.53999179285129 -9.919359693995528 11.644465727733882 -21.563825421729412 11.644465727733882
S 1131.4299765143091 495.6965704075334 1131.4299765143091 455.1565786146821
s 9.919359693995528 -11.644465727733882 21.563825421729412 -11.644465727733882
S 1174.557627357768 414.61658682183077 1174.557627357768 455.1565786146821
z"
            fill="none" stroke="none"></path>
        <use xlink:href="#path-nncsdufnthh-2" x="0" y="0" stroke="#376888">
            <animateMotion begin="-4.478852613413383s" dur="5.4945054945054945s" keyPoints="0;1"
                keyTimes="0;1" repeatCount="indefinite" calcMode="linear">
                <mpath xlink:href="#path36"></mpath>
            </animateMotion>
        </use>
        <path id="path37"
            d="M 1231.9966374752742 422.4802405678624
c 0 63.70878417942153 -15.588319533262712 18.299331626004058 -33.88765115926677 18.299331626004058
S 1164.2213351567405 486.1890247472839 1164.2213351567405 422.4802405678624
s 15.588319533262712 -18.299331626004058 33.88765115926677 -18.299331626004058
S 1231.9966374752742 358.77145638844087 1231.9966374752742 422.4802405678624
z"
            fill="none" stroke="none"></path>
        <use xlink:href="#path-nncsdufnthh-3" x="0" y="0" stroke="#826b88">
            <animateMotion begin="-3.1126729778151927s" dur="5.4945054945054945s" keyPoints="1;0"
                keyTimes="0;1" repeatCount="indefinite" calcMode="linear">
                <mpath xlink:href="#path37"></mpath>
            </animateMotion>
        </use>
        <path id="path38"
            d="M 1234.6169087446906 117.73953388947801
c 0 28.460005507442673 -6.963618368842355 8.174682432988853 -15.138300801831209 8.174682432988853
S 1204.340307141028 146.19953939692067 1204.340307141028 117.73953388947801
s 6.963618368842355 -8.174682432988853 15.138300801831209 -8.174682432988853
S 1234.6169087446906 89.27952838203534 1234.6169087446906 117.73953388947801
z"
            fill="none" stroke="none"></path>
        <use xlink:href="#path-nncsdufnthh-2" x="0" y="0" stroke="#8cd0e5">
            <animateMotion begin="-4.574878393336506s" dur="5.4945054945054945s" keyPoints="0;1"
                keyTimes="0;1" repeatCount="indefinite" calcMode="linear">
                <mpath xlink:href="#path38"></mpath>
            </animateMotion>
        </use>
        <path id="path39"
            d="M 1284.2848927324046 520.0523729002082
c 0 49.142135881746654 -12.024139630640137 14.115294349012336 -26.139433979652473 14.115294349012336
S 1232.0060247730996 569.1945087819548 1232.0060247730996 520.0523729002082
s 12.024139630640137 -14.115294349012336 26.139433979652473 -14.115294349012336
S 1284.2848927324046 470.91023701846154 1284.2848927324046 520.0523729002082
z"
            fill="none" stroke="none"></path>
        <use xlink:href="#path-nncsdufnthh-3" x="0" y="0" stroke="#376888">
            <animateMotion begin="-1.7594140053545826s" dur="5.4945054945054945s" keyPoints="1;0"
                keyTimes="0;1" repeatCount="indefinite" calcMode="linear">
                <mpath xlink:href="#path39"></mpath>
            </animateMotion>
        </use>
        <path id="path40"
            d="M 1303.6683115609383 302.2327451559286
c 0 41.95422169682135 -10.26539467049884 12.050680700150814 -22.316075370649653 12.050680700150814
S 1259.0361608196388 344.18696685274995 1259.0361608196388 302.2327451559286
s 10.26539467049884 -12.050680700150814 22.316075370649653 -12.050680700150814
S 1303.6683115609383 260.2785234591073 1303.6683115609383 302.2327451559286
z"
            fill="none" stroke="none"></path>
        <use xlink:href="#path-nncsdufnthh-1" x="0" y="0" stroke="#826b88">
            <animateMotion begin="-3.6104086161220112s" dur="5.4945054945054945s" keyPoints="0;1"
                keyTimes="0;1" repeatCount="indefinite" calcMode="linear">
                <mpath xlink:href="#path40"></mpath>
            </animateMotion>
        </use>
        <path id="path41"
            d="M 1340.9020417990794 388.601945525504
c 0 21.963013333029934 -5.373928794252005 6.308525106295833 -11.682453900547838 6.308525106295833
S 1317.5371339979836 410.56495885853394 1317.5371339979836 388.601945525504
s 5.373928794252005 -6.308525106295833 11.682453900547838 -6.308525106295833
S 1340.9020417990794 366.63893219247404 1340.9020417990794 388.601945525504
z"
            fill="none" stroke="none"></path>
        <use xlink:href="#path-nncsdufnthh-1" x="0" y="0" stroke="#826b88">
            <animateMotion begin="-0.7606621504794383s" dur="5.4945054945054945s" keyPoints="0;1"
                keyTimes="0;1" repeatCount="indefinite" calcMode="linear">
                <mpath xlink:href="#path41"></mpath>
            </animateMotion>
        </use>
        <path id="path42"
            d="M 1379.3370387935736 426.1352338622839
c 0 24.16687633763278 -5.913171869846318 6.94154958634133 -12.854721456187647 6.94154958634133
S 1353.6275958811982 450.3021101999167 1353.6275958811982 426.1352338622839
s 5.913171869846318 -6.94154958634133 12.854721456187647 -6.94154958634133
S 1379.3370387935736 401.9683575246511 1379.3370387935736 426.1352338622839
z"
            fill="none" stroke="none"></path>
        <use xlink:href="#path-nncsdufnthh-3" x="0" y="0" stroke="#8cd0e5">
            <animateMotion begin="-3.217867047463992s" dur="5.4945054945054945s" keyPoints="0;1"
                keyTimes="0;1" repeatCount="indefinite" calcMode="linear">
                <mpath xlink:href="#path42"></mpath>
            </animateMotion>
        </use>
        <path id="path43"
            d="M 1410.3081374234189 85.73269899404288
c 0 43.085407346975735 -10.542174138089807 12.375595727322818 -22.917769865412623 12.375595727322818
S 1364.4725976925938 128.81810634101862 1364.4725976925938 85.73269899404288
s 10.542174138089807 -12.375595727322818 22.917769865412623 -12.375595727322818
S 1410.3081374234189 42.64729164706714 1410.3081374234189 85.73269899404288
z"
            fill="none" stroke="none"></path>
        <use xlink:href="#path-nncsdufnthh-3" x="0" y="0" stroke="#376888">
            <animateMotion begin="-3.360775836890393s" dur="5.4945054945054945s" keyPoints="1;0"
                keyTimes="0;1" repeatCount="indefinite" calcMode="linear">
                <mpath xlink:href="#path43"></mpath>
            </animateMotion>
        </use>
        <path id="path44"
            d="M 1424.5295539284025 940.9714937020458
c 0 19.036370335127906 -4.657835294765338 5.467893606898442 -10.12572890166378 5.467893606898442
S 1404.278096125075 960.0078640371737 1404.278096125075 940.9714937020458
s 4.657835294765338 -5.467893606898442 10.12572890166378 -5.467893606898442
S 1424.5295539284025 921.9351233669179 1424.5295539284025 940.9714937020458
z"
            fill="none" stroke="none"></path>
        <use xlink:href="#path-nncsdufnthh-1" x="0" y="0" stroke="#376888">
            <animateMotion begin="-0.11075466773154877s" dur="5.4945054945054945s" keyPoints="1;0"
                keyTimes="0;1" repeatCount="indefinite" calcMode="linear">
                <mpath xlink:href="#path44"></mpath>
            </animateMotion>
        </use>
        <path id="path45"
            d="M 1476.1686542990476 331.4347456212397
c 0 42.67753888137877 -10.442376534805442 12.258442019119435 -22.700818553924876 12.258442019119435
S 1430.767017191198 374.1122845026185 1430.767017191198 331.4347456212397
s 10.442376534805442 -12.258442019119435 22.700818553924876 -12.258442019119435
S 1476.1686542990476 288.7572067398609 1476.1686542990476 331.4347456212397
z"
            fill="none" stroke="none"></path>
        <use xlink:href="#path-nncsdufnthh-1" x="0" y="0" stroke="#376888">
            <animateMotion begin="-2.0788573487324804s" dur="5.4945054945054945s" keyPoints="1;0"
                keyTimes="0;1" repeatCount="indefinite" calcMode="linear">
                <mpath xlink:href="#path45"></mpath>
            </animateMotion>
        </use>
        <path id="path46"
            d="M 1494.2465596733457 367.1572258454716
c 0 26.53044148138679 -6.491491000764853 7.62044595741961 -14.111936958184463 7.62044595741961
S 1466.0226857569767 393.6876673268584 1466.0226857569767 367.1572258454716
s 6.491491000764853 -7.62044595741961 14.111936958184463 -7.62044595741961
S 1494.2465596733457 340.6267843640848 1494.2465596733457 367.1572258454716
z"
            fill="none" stroke="none"></path>
        <use xlink:href="#path-nncsdufnthh-3" x="0" y="0" stroke="#826b88">
            <animateMotion begin="-2.929281150193646s" dur="5.4945054945054945s" keyPoints="0;1"
                keyTimes="0;1" repeatCount="indefinite" calcMode="linear">
                <mpath xlink:href="#path46"></mpath>
            </animateMotion>
        </use>
        <path id="path47"
            d="M 1548.097007893952 680.8082900638393
c 0 53.211543011283915 -13.019845630420532 15.284166609624105 -28.304012240044635 15.284166609624105
S 1491.4889834138628 734.0198330751232 1491.4889834138628 680.8082900638393
s 13.019845630420532 -15.284166609624105 28.304012240044635 -15.284166609624105
S 1548.097007893952 627.5967470525554 1548.097007893952 680.8082900638393
z"
            fill="none" stroke="none"></path>
        <use xlink:href="#path-nncsdufnthh-3" x="0" y="0" stroke="#376888">
            <animateMotion begin="-3.8961270600122986s" dur="5.4945054945054945s" keyPoints="1;0"
                keyTimes="0;1" repeatCount="indefinite" calcMode="linear">
                <mpath xlink:href="#path47"></mpath>
            </animateMotion>
        </use>
        <path id="path48"
            d="M 1574.3080835215374 848.0446747131821
c 0 53.85599193532223 -13.177529941621394 15.469274279294684 -28.646804220916078 15.469274279294684
S 1517.0144750797053 901.9006666485043 1517.0144750797053 848.0446747131821
s 13.177529941621394 -15.469274279294684 28.646804220916078 -15.469274279294684
S 1574.3080835215374 794.1886827778599 1574.3080835215374 848.0446747131821
z"
            fill="none" stroke="none"></path>
        <use xlink:href="#path-nncsdufnthh-1" x="0" y="0" stroke="#376888">
            <animateMotion begin="-5.346786950515505s" dur="5.4945054945054945s" keyPoints="0;1"
                keyTimes="0;1" repeatCount="indefinite" calcMode="linear">
                <mpath xlink:href="#path48"></mpath>
            </animateMotion>
        </use>
        <path id="path49"
            d="M 1596.875536988116 975.1073130295231
c 0 65.38607813373429 -15.998721245488175 18.781107549051338 -34.77982879453951 18.781107549051338
S 1527.315879399037 1040.4933911632575 1527.315879399037 975.1073130295231
s 15.998721245488175 -18.781107549051338 34.77982879453951 -18.781107549051338
S 1596.875536988116 909.7212348957888 1596.875536988116 975.1073130295231
z"
            fill="none" stroke="none"></path>
        <use xlink:href="#path-nncsdufnthh-2" x="0" y="0" stroke="#826b88">
            <animateMotion begin="-2.9646992642551644s" dur="5.4945054945054945s" keyPoints="1;0"
                keyTimes="0;1" repeatCount="indefinite" calcMode="linear">
                <mpath xlink:href="#path49"></mpath>
            </animateMotion>
        </use>
        <path id="path50"
            d="M 1629.576108449168 565.5803882805711
c 0 58.18879792960727 -14.237684599797522 16.713803660631875 -30.9514882604294 16.713803660631875
S 1567.6731319283092 623.7691862101784 1567.6731319283092 565.5803882805711
s 14.237684599797522 -16.713803660631875 30.9514882604294 -16.713803660631875
S 1629.576108449168 507.39159035096384 1629.576108449168 565.5803882805711
z"
            fill="none" stroke="none"></path>
        <use xlink:href="#path-nncsdufnthh-3" x="0" y="0" stroke="#826b88">
            <animateMotion begin="-4.124094973486814s" dur="5.4945054945054945s" keyPoints="1;0"
                keyTimes="0;1" repeatCount="indefinite" calcMode="linear">
                <mpath xlink:href="#path50"></mpath>
            </animateMotion>
        </use>
        <path id="path51"
            d="M 1653.7620616203867 209.12148205147972
c 0 37.565141817536166 -9.19147087024821 10.789987543334856 -19.981458413583066 10.789987543334856
S 1613.7991447932204 246.68662386901588 1613.7991447932204 209.12148205147972
s 9.19147087024821 -10.789987543334856 19.981458413583066 -10.789987543334856
S 1653.7620616203867 171.55634023394356 1653.7620616203867 209.12148205147972
z"
            fill="none" stroke="none"></path>
        <use xlink:href="#path-nncsdufnthh-2" x="0" y="0" stroke="#8cd0e5">
            <animateMotion begin="-3.4133466508803165s" dur="5.4945054945054945s" keyPoints="1;0"
                keyTimes="0;1" repeatCount="indefinite" calcMode="linear">
                <mpath xlink:href="#path51"></mpath>
            </animateMotion>
        </use>
        <path id="path52"
            d="M 1686.0589649355736 232.89270615724948
c 0 43.057986224227946 -10.535464714438753 12.367719447384623 -22.903184161823376 12.367719447384623
S 1640.2525966119267 275.95069238147744 1640.2525966119267 232.89270615724948
s 10.535464714438753 -12.367719447384623 22.903184161823376 -12.367719447384623
S 1686.0589649355736 189.83471993302152 1686.0589649355736 232.89270615724948
z"
            fill="none" stroke="none"></path>
        <use xlink:href="#path-nncsdufnthh-3" x="0" y="0" stroke="#8cd0e5">
            <animateMotion begin="-3.1314530572705506s" dur="5.4945054945054945s" keyPoints="1;0"
                keyTimes="0;1" repeatCount="indefinite" calcMode="linear">
                <mpath xlink:href="#path52"></mpath>
            </animateMotion>
        </use>
        <path id="path53"
            d="M 1706.4356304335556 289.3086224021091
c 0 40.491865360784715 -9.907584077638813 11.630642178097737 -21.53822625573655 11.630642178097737
S 1663.3591779220824 329.8004877628938 1663.3591779220824 289.3086224021091
s 9.907584077638813 -11.630642178097737 21.53822625573655 -11.630642178097737
S 1706.4356304335556 248.8167570413244 1706.4356304335556 289.3086224021091
z"
            fill="none" stroke="none"></path>
        <use xlink:href="#path-nncsdufnthh-1" x="0" y="0" stroke="#826b88">
            <animateMotion begin="-4.237351317589903s" dur="5.4945054945054945s" keyPoints="0;1"
                keyTimes="0;1" repeatCount="indefinite" calcMode="linear">
                <mpath xlink:href="#path53"></mpath>
            </animateMotion>
        </use>
        <path id="path54"
            d="M 1748.062216495353 421.5159333261795
c 0 28.278932936677187 -6.919313378123141 8.122672226492384 -15.041985604615524 8.122672226492384
S 1717.9782452861218 449.79486626285666 1717.9782452861218 421.5159333261795
s 6.919313378123141 -8.122672226492384 15.041985604615524 -8.122672226492384
S 1748.062216495353 393.2370003895023 1748.062216495353 421.5159333261795
z"
            fill="none" stroke="none"></path>
        <use xlink:href="#path-nncsdufnthh-3" x="0" y="0" stroke="#826b88">
            <animateMotion begin="-2.342534699820916s" dur="5.4945054945054945s" keyPoints="0;1"
                keyTimes="0;1" repeatCount="indefinite" calcMode="linear">
                <mpath xlink:href="#path54"></mpath>
            </animateMotion>
        </use>
        <path id="path55"
            d="M 1792.175611792975 51.023619957050585
c 0 58.40332011623724 -14.290174070994217 16.775421735514954 -31.06559580650917 16.775421735514954
S 1730.0444201799564 109.42694007328782 1730.0444201799564 51.023619957050585
s 14.290174070994217 -16.775421735514954 31.06559580650917 -16.775421735514954
S 1792.175611792975 -7.379700159186655 1792.175611792975 51.023619957050585
z"
            fill="none" stroke="none"></path>
        <use xlink:href="#path-nncsdufnthh-1" x="0" y="0" stroke="#826b88">
            <animateMotion begin="-1.2786325965437648s" dur="5.4945054945054945s" keyPoints="0;1"
                keyTimes="0;1" repeatCount="indefinite" calcMode="linear">
                <mpath xlink:href="#path55"></mpath>
            </animateMotion>
        </use>
        <path id="path56"
            d="M 1792.5360839333978 673.9486277943251
c 0 36.686710714230315 -8.976535600290395 10.537672226427857 -19.514207826718252 10.537672226427857
S 1753.507668279961 710.6353385085555 1753.507668279961 673.9486277943251
s 8.976535600290395 -10.537672226427857 19.514207826718252 -10.537672226427857
S 1792.5360839333978 637.2619170800948 1792.5360839333978 673.9486277943251
z"
            fill="none" stroke="none"></path>
        <use xlink:href="#path-nncsdufnthh-1" x="0" y="0" stroke="#376888">
            <animateMotion begin="-1.916645662143819s" dur="5.4945054945054945s" keyPoints="1;0"
                keyTimes="0;1" repeatCount="indefinite" calcMode="linear">
                <mpath xlink:href="#path56"></mpath>
            </animateMotion>
        </use>
        <path id="path57"
            d="M 1853.3093567738579 169.34018129913775
c 0 35.46920654893528 -8.678635644952248 10.187963583204816 -18.866599228157064 10.187963583204816
S 1815.5761583175436 204.80938784807304 1815.5761583175436 169.34018129913775
s 8.678635644952248 -10.187963583204816 18.866599228157064 -10.187963583204816
S 1853.3093567738579 133.87097475020246 1853.3093567738579 169.34018129913775
z"
            fill="none" stroke="none"></path>
        <use xlink:href="#path-nncsdufnthh-2" x="0" y="0" stroke="#8cd0e5">
            <animateMotion begin="-2.0194070060953444s" dur="5.4945054945054945s" keyPoints="1;0"
                keyTimes="0;1" repeatCount="indefinite" calcMode="linear">
                <mpath xlink:href="#path57"></mpath>
            </animateMotion>
        </use>
        <path id="path58"
            d="M 1857.42762625591 185.10860675140592
c 0 42.146370675162856 -10.312409846050485 12.10587242797231 -22.418282274022797 12.10587242797231
S 1812.5910617078641 227.25497742656876 1812.5910617078641 185.10860675140592
s 10.312409846050485 -12.10587242797231 22.418282274022797 -12.10587242797231
S 1857.42762625591 142.96223607624307 1857.42762625591 185.10860675140592
z"
            fill="none" stroke="none"></path>
        <use xlink:href="#path-nncsdufnthh-3" x="0" y="0" stroke="#376888">
            <animateMotion begin="-4.932522354260063s" dur="5.4945054945054945s" keyPoints="0;1"
                keyTimes="0;1" repeatCount="indefinite" calcMode="linear">
                <mpath xlink:href="#path58"></mpath>
            </animateMotion>
        </use>
        <path id="path59"
            d="M 1917.9997405941012 575.3809318033499
c 0 63.56737175831572 -15.553718621715547 18.258713164622602 -33.81243178633815 18.258713164622602
S 1850.3748770214252 638.9483035616656 1850.3748770214252 575.3809318033499
s 15.553718621715547 -18.258713164622602 33.81243178633815 -18.258713164622602
S 1917.9997405941012 511.81356004503414 1917.9997405941012 575.3809318033499
z"
            fill="none" stroke="none"></path>
        <use xlink:href="#path-nncsdufnthh-3" x="0" y="0" stroke="#376888">
            <animateMotion begin="-3.9106694406555915s" dur="5.4945054945054945s" keyPoints="1;0"
                keyTimes="0;1" repeatCount="indefinite" calcMode="linear">
                <mpath xlink:href="#path59"></mpath>
            </animateMotion>
        </use>
    </g>
</svg>