<svg xmlns="http://www.w3.org/2000/svg" xmlns:xlink="http://www.w3.org/1999/xlink"
    style="margin:auto;background:#070616;display:block;z-index:1;position:relative" width="1920"
    height="1080" preserveAspectRatio="xMidYMid" viewBox="0 0 1920 1080">
    <g transform="translate(960,540) scale(1,1) translate(-960,-540)">
        <defs>
            <path id="path-iu6wx4vx0df-1" d="M-35 -35L35 -35L35 35L-35 35Z" fill="none"
                stroke="inherit" stroke-width="4.333333333333334" transform="scale(0.3)"></path>
            <path id="path-iu6wx4vx0df-2" d="M0 -37A37 37 0 0 1 0 37A37 37 0 0 1 0 -37" fill="none"
                stroke="inherit" stroke-width="4.333333333333334" transform="scale(0.3)"></path>
            <path id="path-iu6wx4vx0df-3" d="M0 -34.641L40 34.641L-40 34.641Z" fill="none"
                stroke="inherit" stroke-width="4.333333333333334" transform="scale(0.3)"></path>
        </defs>
        <path id="path0"
            d="M 48.816947180875275 1056.0009269355407
c 0 29.62249015282662 -7.248056101223534 8.508587597088498 -15.756643698312033 8.508587597088498
S 17.30365978425121 1085.6234170883674 17.30365978425121 1056.0009269355407
s 7.248056101223534 -8.508587597088498 15.756643698312033 -8.508587597088498
S 48.816947180875275 1026.378436782714 48.816947180875275 1056.0009269355407
z"
            fill="none" stroke="none"></path>
        <use xlink:href="#path-iu6wx4vx0df-3" x="0" y="0" stroke="#ddeeff">
            <animateMotion begin="-4.424041100935725s" dur="10s" keyPoints="1;0" keyTimes="0;1"
                repeatCount="indefinite" calcMode="linear">
                <mpath xlink:href="#path0"></mpath>
            </animateMotion>
        </use>
        <path id="path1"
            d="M 93.13115717793114 805.7228768305927
c 0 59.778938805619255 -14.626761622651518 17.170546252677873 -31.79730787532939 17.170546252677873
S 29.536541427272365 865.501815636212 29.536541427272365 805.7228768305927
s 14.626761622651518 -17.170546252677873 31.79730787532939 -17.170546252677873
S 93.13115717793114 745.9439380249734 93.13115717793114 805.7228768305927
z"
            fill="none" stroke="none"></path>
        <use xlink:href="#path-iu6wx4vx0df-3" x="0" y="0" stroke="#aabbcc">
            <animateMotion begin="-9.988898613963116s" dur="10s" keyPoints="0;1" keyTimes="0;1"
                repeatCount="indefinite" calcMode="linear">
                <mpath xlink:href="#path1"></mpath>
            </animateMotion>
        </use>
        <path id="path2"
            d="M 136.60593479496043 527.0138814311398
c 0 58.718488988424795 -14.367289858869896 16.865948964760314 -31.23323882363021 16.865948964760314
S 74.1394571477 585.7323704195646 74.1394571477 527.0138814311398
s 14.367289858869896 -16.865948964760314 31.23323882363021 -16.865948964760314
S 136.60593479496043 468.295392442715 136.60593479496043 527.0138814311398
z"
            fill="none" stroke="none"></path>
        <use xlink:href="#path-iu6wx4vx0df-1" x="0" y="0" stroke="#ddeeff">
            <animateMotion begin="-2.3183185267559936s" dur="10s" keyPoints="0;1" keyTimes="0;1"
                repeatCount="indefinite" calcMode="linear">
                <mpath xlink:href="#path2"></mpath>
            </animateMotion>
        </use>
        <path id="path3"
            d="M 142.6041726478469 773.6803159541378
c 0 31.184548030593533 -7.630261752166502 8.957263796021547 -16.587525548188047 8.957263796021547
S 109.42912155147079 804.8648639847313 109.42912155147079 773.6803159541378
s 7.630261752166502 -8.957263796021547 16.587525548188047 -8.957263796021547
S 142.6041726478469 742.4957679235442 142.6041726478469 773.6803159541378
z"
            fill="none" stroke="none"></path>
        <use xlink:href="#path-iu6wx4vx0df-3" x="0" y="0" stroke="#ddeeff">
            <animateMotion begin="-5.674573113585161s" dur="10s" keyPoints="0;1" keyTimes="0;1"
                repeatCount="indefinite" calcMode="linear">
                <mpath xlink:href="#path3"></mpath>
            </animateMotion>
        </use>
        <path id="path4"
            d="M 184.34016446127941 244.0812102650402
c 0 30.68588478752516 -7.508248405458284 8.814030736842334 -16.322279142300616 8.814030736842334
S 151.69560617667815 274.76709505256537 151.69560617667815 244.0812102650402
s 7.508248405458284 -8.814030736842334 16.322279142300616 -8.814030736842334
S 184.34016446127941 213.39532547751503 184.34016446127941 244.0812102650402
z"
            fill="none" stroke="none"></path>
        <use xlink:href="#path-iu6wx4vx0df-3" x="0" y="0" stroke="#aabbcc">
            <animateMotion begin="-3.6963301051056208s" dur="10s" keyPoints="1;0" keyTimes="0;1"
                repeatCount="indefinite" calcMode="linear">
                <mpath xlink:href="#path4"></mpath>
            </animateMotion>
        </use>
        <path id="path5"
            d="M 200.920327297503 292.7032955508133
c 0 26.112433430654963 -6.389212435160256 7.500379815188127 -13.889592250348384 7.500379815188127
S 173.14114279680624 318.8157289814683 173.14114279680624 292.7032955508133
s 6.389212435160256 -7.500379815188127 13.889592250348384 -7.500379815188127
S 200.920327297503 266.59086212015836 200.920327297503 292.7032955508133
z"
            fill="none" stroke="none"></path>
        <use xlink:href="#path-iu6wx4vx0df-3" x="0" y="0" stroke="#bbddff">
            <animateMotion begin="-1.9842422742313337s" dur="10s" keyPoints="0;1" keyTimes="0;1"
                repeatCount="indefinite" calcMode="linear">
                <mpath xlink:href="#path5"></mpath>
            </animateMotion>
        </use>
        <path id="path6"
            d="M 237.94165420085108 445.2357191878901
c 0 59.38815465069455 -14.531144223042281 17.058299740093116 -31.5894439631354 17.058299740093116
S 174.76276627458026 504.62387383858464 174.76276627458026 445.2357191878901
s 14.531144223042281 -17.058299740093116 31.5894439631354 -17.058299740093116
S 237.94165420085108 385.8475645371955 237.94165420085108 445.2357191878901
z"
            fill="none" stroke="none"></path>
        <use xlink:href="#path-iu6wx4vx0df-2" x="0" y="0" stroke="#bbddff">
            <animateMotion begin="-8.094605028912412s" dur="10s" keyPoints="1;0" keyTimes="0;1"
                repeatCount="indefinite" calcMode="linear">
                <mpath xlink:href="#path6"></mpath>
            </animateMotion>
        </use>
        <path id="path7"
            d="M 250.52209441728868 962.0654276556149
c 0 54.94362490524626 -13.443652902347488 15.781679494060096 -29.225332396407584 15.781679494060096
S 192.0714296244735 1017.0090525608612 192.0714296244735 962.0654276556149
s 13.443652902347488 -15.781679494060096 29.225332396407584 -15.781679494060096
S 250.52209441728868 907.1218027503687 250.52209441728868 962.0654276556149
z"
            fill="none" stroke="none"></path>
        <use xlink:href="#path-iu6wx4vx0df-2" x="0" y="0" stroke="#ddeeff">
            <animateMotion begin="-8.292013122948983s" dur="10s" keyPoints="0;1" keyTimes="0;1"
                repeatCount="indefinite" calcMode="linear">
                <mpath xlink:href="#path7"></mpath>
            </animateMotion>
        </use>
        <path id="path8"
            d="M 304.89980882382713 845.082741847709
c 0 44.18056502339581 -10.810138250405355 12.690162293954115 -23.500300544359472 12.690162293954115
S 257.89920773510823 889.2633068711049 257.89920773510823 845.082741847709
s 10.810138250405355 -12.690162293954115 23.500300544359472 -12.690162293954115
S 304.89980882382713 800.9021768243132 304.89980882382713 845.082741847709
z"
            fill="none" stroke="none"></path>
        <use xlink:href="#path-iu6wx4vx0df-2" x="0" y="0" stroke="#ddeeff">
            <animateMotion begin="-5.010722234562732s" dur="10s" keyPoints="1;0" keyTimes="0;1"
                repeatCount="indefinite" calcMode="linear">
                <mpath xlink:href="#path8"></mpath>
            </animateMotion>
        </use>
        <path id="path9"
            d="M 339.61667464391815 426.80483555958733
c 0 56.28342113003392 -13.77147538288064 16.16651457990336 -29.937989962784002 16.16651457990336
S 279.74069471835014 483.08825668962123 279.74069471835014 426.80483555958733
s 13.77147538288064 -16.16651457990336 29.937989962784002 -16.16651457990336
S 339.61667464391815 370.52141442955343 339.61667464391815 426.80483555958733
z"
            fill="none" stroke="none"></path>
        <use xlink:href="#path-iu6wx4vx0df-3" x="0" y="0" stroke="#bbddff">
            <animateMotion begin="-1.4880040802171335s" dur="10s" keyPoints="1;0" keyTimes="0;1"
                repeatCount="indefinite" calcMode="linear">
                <mpath xlink:href="#path9"></mpath>
            </animateMotion>
        </use>
        <path id="path10"
            d="M 330.90841768853886 471.12544836465776
c 0 33.98946037311083 -8.316570091293075 9.762930107170133 -18.079500198463208 9.762930107170133
S 294.7494172916124 505.1149087377686 294.7494172916124 471.12544836465776
s 8.316570091293075 -9.762930107170133 18.079500198463208 -9.762930107170133
S 330.90841768853886 437.1359879915469 330.90841768853886 471.12544836465776
z"
            fill="none" stroke="none"></path>
        <use xlink:href="#path-iu6wx4vx0df-2" x="0" y="0" stroke="#bbddff">
            <animateMotion begin="-5.909540899214214s" dur="10s" keyPoints="1;0" keyTimes="0;1"
                repeatCount="indefinite" calcMode="linear">
                <mpath xlink:href="#path10"></mpath>
            </animateMotion>
        </use>
        <path id="path11"
            d="M 380.1415339796592 1020.2640012215879
c 0 62.20487464114771 -15.220341667514864 17.867357609691364 -33.08769927720623 17.867357609691364
S 313.9661354252467 1082.4688758627356 313.9661354252467 1020.2640012215879
s 15.220341667514864 -17.867357609691364 33.08769927720623 -17.867357609691364
S 380.1415339796592 958.0591265804402 380.1415339796592 1020.2640012215879
z"
            fill="none" stroke="none"></path>
        <use xlink:href="#path-iu6wx4vx0df-2" x="0" y="0" stroke="#ddeeff">
            <animateMotion begin="-5.021943592740237s" dur="10s" keyPoints="0;1" keyTimes="0;1"
                repeatCount="indefinite" calcMode="linear">
                <mpath xlink:href="#path11"></mpath>
            </animateMotion>
        </use>
        <path id="path12"
            d="M 388.7709975993903 176.67205791855451
c 0 24.648266820915616 -6.03095890298999 7.079821320901295 -13.110780223891286 7.079821320901295
S 362.54943715160766 201.32032473947012 362.54943715160766 176.67205791855451
s 6.03095890298999 -7.079821320901295 13.110780223891286 -7.079821320901295
S 388.7709975993903 152.0237910976389 388.7709975993903 176.67205791855451
z"
            fill="none" stroke="none"></path>
        <use xlink:href="#path-iu6wx4vx0df-2" x="0" y="0" stroke="#aabbcc">
            <animateMotion begin="-4.337055592143728s" dur="10s" keyPoints="1;0" keyTimes="0;1"
                repeatCount="indefinite" calcMode="linear">
                <mpath xlink:href="#path12"></mpath>
            </animateMotion>
        </use>
        <path id="path13"
            d="M 422.89857357421437 484.8969746651824
c 0 43.259243545485276 -10.584708527086821 12.425527401362793 -23.010235928449614 12.425527401362793
S 376.87810171731513 528.1562182106677 376.87810171731513 484.8969746651824
s 10.584708527086821 -12.425527401362793 23.010235928449614 -12.425527401362793
S 422.89857357421437 441.63773111969715 422.89857357421437 484.8969746651824
z"
            fill="none" stroke="none"></path>
        <use xlink:href="#path-iu6wx4vx0df-3" x="0" y="0" stroke="#bbddff">
            <animateMotion begin="-1.6677526523996433s" dur="10s" keyPoints="0;1" keyTimes="0;1"
                repeatCount="indefinite" calcMode="linear">
                <mpath xlink:href="#path13"></mpath>
            </animateMotion>
        </use>
        <path id="path14"
            d="M 456.8002776180577 759.5825378678429
c 0 27.48720256935603 -6.725592118033922 7.895260312474605 -14.620852430508526 7.895260312474605
S 427.5585727570406 787.0697404371989 427.5585727570406 759.5825378678429
s 6.725592118033922 -7.895260312474605 14.620852430508526 -7.895260312474605
S 456.8002776180577 732.0953352984869 456.8002776180577 759.5825378678429
z"
            fill="none" stroke="none"></path>
        <use xlink:href="#path-iu6wx4vx0df-1" x="0" y="0" stroke="#aabbcc">
            <animateMotion begin="-3.6906878913363417s" dur="10s" keyPoints="0;1" keyTimes="0;1"
                repeatCount="indefinite" calcMode="linear">
                <mpath xlink:href="#path14"></mpath>
            </animateMotion>
        </use>
        <path id="path15"
            d="M 509.7411347015467 689.9748358711058
c 0 49.26389650993608 -12.053932124771592 14.150268146471003 -26.204200271242595 14.150268146471003
S 457.3327341590615 739.2387323810419 457.3327341590615 689.9748358711058
s 12.053932124771592 -14.150268146471003 26.204200271242595 -14.150268146471003
S 509.7411347015467 640.7109393611697 509.7411347015467 689.9748358711058
z"
            fill="none" stroke="none"></path>
        <use xlink:href="#path-iu6wx4vx0df-2" x="0" y="0" stroke="#bbddff">
            <animateMotion begin="-6.281139922460599s" dur="10s" keyPoints="0;1" keyTimes="0;1"
                repeatCount="indefinite" calcMode="linear">
                <mpath xlink:href="#path15"></mpath>
            </animateMotion>
        </use>
        <path id="path16"
            d="M 507.2520045570627 176.26804977713945
c 0 40.87148719418866 -10.0004702709185 11.739682491947807 -21.74015276286631 11.739682491947807
S 463.77169903133006 217.1395369713281 463.77169903133006 176.26804977713945
s 10.0004702709185 -11.739682491947807 21.74015276286631 -11.739682491947807
S 507.2520045570627 135.3965625829508 507.2520045570627 176.26804977713945
z"
            fill="none" stroke="none"></path>
        <use xlink:href="#path-iu6wx4vx0df-2" x="0" y="0" stroke="#aabbcc">
            <animateMotion begin="-2.442416922604913s" dur="10s" keyPoints="0;1" keyTimes="0;1"
                repeatCount="indefinite" calcMode="linear">
                <mpath xlink:href="#path16"></mpath>
            </animateMotion>
        </use>
        <path id="path17"
            d="M 570.3328156208453 134.22404455352387
c 0 65.54215196797293 -16.03690952407848 18.82593726739648 -34.86284679147496 18.82593726739648
S 500.6071220378954 199.7661965214968 500.6071220378954 134.22404455352387
s 16.03690952407848 -18.82593726739648 34.86284679147496 -18.82593726739648
S 570.3328156208453 68.68189258555094 570.3328156208453 134.22404455352387
z"
            fill="none" stroke="none"></path>
        <use xlink:href="#path-iu6wx4vx0df-3" x="0" y="0" stroke="#ddeeff">
            <animateMotion begin="-8.64459427258404s" dur="10s" keyPoints="0;1" keyTimes="0;1"
                repeatCount="indefinite" calcMode="linear">
                <mpath xlink:href="#path17"></mpath>
            </animateMotion>
        </use>
        <path id="path18"
            d="M 582.3792098718885 117.10367594361145
c 0 28.765404533564602 -7.038343662467933 8.262403429853663 -15.300747092321597 8.262403429853663
S 551.7777156872454 145.86908047717606 551.7777156872454 117.10367594361145
s 7.038343662467933 -8.262403429853663 15.300747092321597 -8.262403429853663
S 582.3792098718885 88.33827141004684 582.3792098718885 117.10367594361145
z"
            fill="none" stroke="none"></path>
        <use xlink:href="#path-iu6wx4vx0df-3" x="0" y="0" stroke="#bbddff">
            <animateMotion begin="-9.573462525233706s" dur="10s" keyPoints="1;0" keyTimes="0;1"
                repeatCount="indefinite" calcMode="linear">
                <mpath xlink:href="#path18"></mpath>
            </animateMotion>
        </use>
        <path id="path19"
            d="M 601.8257268503521 743.1561829846219
c 0 29.192499115896464 -7.142845528357644 8.38507953328941 -15.527925061647053 8.38507953328941
S 570.7698767270581 772.3486821005183 570.7698767270581 743.1561829846219
s 7.142845528357644 -8.38507953328941 15.527925061647053 -8.38507953328941
S 601.8257268503521 713.9636838687254 601.8257268503521 743.1561829846219
z"
            fill="none" stroke="none"></path>
        <use xlink:href="#path-iu6wx4vx0df-2" x="0" y="0" stroke="#aabbcc">
            <animateMotion begin="-1.0563164156815152s" dur="10s" keyPoints="1;0" keyTimes="0;1"
                repeatCount="indefinite" calcMode="linear">
                <mpath xlink:href="#path19"></mpath>
            </animateMotion>
        </use>
        <path id="path20"
            d="M 631.2632543323657 256.4831753172552
c 0 37.57225491328579 -9.193211308569927 10.79203066658209 -19.985241975152015 10.79203066658209
S 591.2927703820617 294.055430230541 591.2927703820617 256.4831753172552
s 9.193211308569927 -10.79203066658209 19.985241975152015 -10.79203066658209
S 631.2632543323657 218.91092040396939 631.2632543323657 256.4831753172552
z"
            fill="none" stroke="none"></path>
        <use xlink:href="#path-iu6wx4vx0df-1" x="0" y="0" stroke="#bbddff">
            <animateMotion begin="-9.816189001304942s" dur="10s" keyPoints="1;0" keyTimes="0;1"
                repeatCount="indefinite" calcMode="linear">
                <mpath xlink:href="#path20"></mpath>
            </animateMotion>
        </use>
        <path id="path21"
            d="M 654.5844485290088 699.9176156034314
c 0 21.336208390859564 -5.220561627550744 6.1284853888639175 -11.349047016414662 6.1284853888639175
S 631.8863544961794 721.253823994291 631.8863544961794 699.9176156034314
s 5.220561627550744 -6.1284853888639175 11.349047016414662 -6.1284853888639175
S 654.5844485290088 678.5814072125718 654.5844485290088 699.9176156034314
z"
            fill="none" stroke="none"></path>
        <use xlink:href="#path-iu6wx4vx0df-2" x="0" y="0" stroke="#ddeeff">
            <animateMotion begin="-1.5181069679848358s" dur="10s" keyPoints="0;1" keyTimes="0;1"
                repeatCount="indefinite" calcMode="linear">
                <mpath xlink:href="#path21"></mpath>
            </animateMotion>
        </use>
        <path id="path22"
            d="M 686.8072172739307 1033.3832427087918
c 0 47.04894797832426 -11.511976632994232 13.514059525688884 -25.026036158683116 13.514059525688884
S 636.7551449565644 1080.4321906871162 636.7551449565644 1033.3832427087918
s 11.511976632994232 -13.514059525688884 25.026036158683116 -13.514059525688884
S 686.8072172739307 986.3342947304676 686.8072172739307 1033.3832427087918
z"
            fill="none" stroke="none"></path>
        <use xlink:href="#path-iu6wx4vx0df-1" x="0" y="0" stroke="#bbddff">
            <animateMotion begin="-9.705185480336333s" dur="10s" keyPoints="1;0" keyTimes="0;1"
                repeatCount="indefinite" calcMode="linear">
                <mpath xlink:href="#path22"></mpath>
            </animateMotion>
        </use>
        <path id="path23"
            d="M 707.4812739377752 309.0080455417276
c 0 22.873850148842152 -5.596793121525207 6.570148447007852 -12.166941568533058 6.570148447007852
S 683.1473908007091 331.88189569056976 683.1473908007091 309.0080455417276
s 5.596793121525207 -6.570148447007852 12.166941568533058 -6.570148447007852
S 707.4812739377752 286.13419539288543 707.4812739377752 309.0080455417276
z"
            fill="none" stroke="none"></path>
        <use xlink:href="#path-iu6wx4vx0df-1" x="0" y="0" stroke="#bbddff">
            <animateMotion begin="-3.9493391884577633s" dur="10s" keyPoints="1;0" keyTimes="0;1"
                repeatCount="indefinite" calcMode="linear">
                <mpath xlink:href="#path23"></mpath>
            </animateMotion>
        </use>
        <path id="path24"
            d="M 766.2773569055624 1051.07718409659
c 0 50.34518635136978 -12.318503043420264 14.460851398797704 -26.77935444221797 14.460851398797704
S 712.7186480211266 1101.4223704479598 712.7186480211266 1051.07718409659
s 12.318503043420264 -14.460851398797704 26.77935444221797 -14.460851398797704
S 766.2773569055624 1000.7319977452202 766.2773569055624 1051.07718409659
z"
            fill="none" stroke="none"></path>
        <use xlink:href="#path-iu6wx4vx0df-1" x="0" y="0" stroke="#ddeeff">
            <animateMotion begin="-6.10299155114379s" dur="10s" keyPoints="1;0" keyTimes="0;1"
                repeatCount="indefinite" calcMode="linear">
                <mpath xlink:href="#path24"></mpath>
            </animateMotion>
        </use>
        <path id="path25"
            d="M 774.3178483593779 167.37394764395071
c 0 32.897244666085754 -8.049325822552897 9.449208574301228 -17.498534396854126 9.449208574301228
S 739.3207795656697 200.27119231003647 739.3207795656697 167.37394764395071
s 8.049325822552897 -9.449208574301228 17.498534396854126 -9.449208574301228
S 774.3178483593779 134.47670297786496 774.3178483593779 167.37394764395071
z"
            fill="none" stroke="none"></path>
        <use xlink:href="#path-iu6wx4vx0df-3" x="0" y="0" stroke="#aabbcc">
            <animateMotion begin="-1.2438291808478597s" dur="10s" keyPoints="0;1" keyTimes="0;1"
                repeatCount="indefinite" calcMode="linear">
                <mpath xlink:href="#path25"></mpath>
            </animateMotion>
        </use>
        <path id="path26"
            d="M 808.9100907256887 312.7471114772056
c 0 55.05292136175132 -13.470395652343406 15.813073157098783 -29.283468809442187 15.813073157098783
S 750.3431531068044 367.8000328389569 750.3431531068044 312.7471114772056
s 13.470395652343406 -15.813073157098783 29.283468809442187 -15.813073157098783
S 808.9100907256887 257.69419011545426 808.9100907256887 312.7471114772056
z"
            fill="none" stroke="none"></path>
        <use xlink:href="#path-iu6wx4vx0df-3" x="0" y="0" stroke="#bbddff">
            <animateMotion begin="-0.548325680994004s" dur="10s" keyPoints="0;1" keyTimes="0;1"
                repeatCount="indefinite" calcMode="linear">
                <mpath xlink:href="#path26"></mpath>
            </animateMotion>
        </use>
        <path id="path27"
            d="M 833.2817077229134 396.3124252513192
c 0 35.13628109438297 -8.597175161391577 10.092336059024896 -18.689511220416474 10.092336059024896
S 795.9026852820806 431.4487063457022 795.9026852820806 396.3124252513192
s 8.597175161391577 -10.092336059024896 18.689511220416474 -10.092336059024896
S 833.2817077229134 361.17614415693623 833.2817077229134 396.3124252513192
z"
            fill="none" stroke="none"></path>
        <use xlink:href="#path-iu6wx4vx0df-3" x="0" y="0" stroke="#aabbcc">
            <animateMotion begin="-7.881766624622317s" dur="10s" keyPoints="0;1" keyTimes="0;1"
                repeatCount="indefinite" calcMode="linear">
                <mpath xlink:href="#path27"></mpath>
            </animateMotion>
        </use>
        <path id="path28"
            d="M 875.3784104804332 917.9279374531061
c 0 61.11479022227197 -14.953618884172927 17.554248255333437 -32.50786713950637 17.554248255333437
S 810.3626762014204 979.042727675378 810.3626762014204 917.9279374531061
s 14.953618884172927 -17.554248255333437 32.50786713950637 -17.554248255333437
S 875.3784104804332 856.8131472308341 875.3784104804332 917.9279374531061
z"
            fill="none" stroke="none"></path>
        <use xlink:href="#path-iu6wx4vx0df-3" x="0" y="0" stroke="#ddeeff">
            <animateMotion begin="-1.17615987485286s" dur="10s" keyPoints="0;1" keyTimes="0;1"
                repeatCount="indefinite" calcMode="linear">
                <mpath xlink:href="#path28"></mpath>
            </animateMotion>
        </use>
        <path id="path29"
            d="M 916.0512464008185 354.1161708404845
c 0 53.681325889026574 -13.134792504761819 15.4191042447204 -28.55389674948222 15.4191042447204
S 858.9434529018541 407.79749672951107 858.9434529018541 354.1161708404845
s 13.134792504761819 -15.4191042447204 28.55389674948222 -15.4191042447204
S 916.0512464008185 300.4348449514579 916.0512464008185 354.1161708404845
z"
            fill="none" stroke="none"></path>
        <use xlink:href="#path-iu6wx4vx0df-1" x="0" y="0" stroke="#bbddff">
            <animateMotion begin="-4.6841954084888275s" dur="10s" keyPoints="1;0" keyTimes="0;1"
                repeatCount="indefinite" calcMode="linear">
                <mpath xlink:href="#path29"></mpath>
            </animateMotion>
        </use>
        <path id="path30"
            d="M 935.4166477506321 322.7016258130636
c 0 39.0256939738377 -9.54884001487518 11.209507843549126 -20.758347858424308 11.209507843549126
S 893.8999520337836 361.72731978690126 893.8999520337836 322.7016258130636
s 9.54884001487518 -11.209507843549126 20.758347858424308 -11.209507843549126
S 935.4166477506321 283.6759318392259 935.4166477506321 322.7016258130636
z"
            fill="none" stroke="none"></path>
        <use xlink:href="#path-iu6wx4vx0df-1" x="0" y="0" stroke="#ddeeff">
            <animateMotion begin="-2.3106143218483366s" dur="10s" keyPoints="0;1" keyTimes="0;1"
                repeatCount="indefinite" calcMode="linear">
                <mpath xlink:href="#path30"></mpath>
            </animateMotion>
        </use>
        <path id="path31"
            d="M 953.2327408725558 153.3217154188361
c 0 38.538560771038334 -9.429647848232783 11.069586604447181 -20.499234452679964 11.069586604447181
S 912.2342719671959 191.86027618987444 912.2342719671959 153.3217154188361
s 9.429647848232783 -11.069586604447181 20.499234452679964 -11.069586604447181
S 953.2327408725558 114.78315464779777 953.2327408725558 153.3217154188361
z"
            fill="none" stroke="none"></path>
        <use xlink:href="#path-iu6wx4vx0df-1" x="0" y="0" stroke="#bbddff">
            <animateMotion begin="-5.111119278193714s" dur="10s" keyPoints="0;1" keyTimes="0;1"
                repeatCount="indefinite" calcMode="linear">
                <mpath xlink:href="#path31"></mpath>
            </animateMotion>
        </use>
        <path id="path32"
            d="M 1005.4446654282485 520.7183871948082
c 0 64.90834584672999 -15.881829302923293 18.643886572996912 -34.525715875920206 18.643886572996912
S 936.393233676408 585.6267330415382 936.393233676408 520.7183871948082
s 15.881829302923293 -18.643886572996912 34.525715875920206 -18.643886572996912
S 1005.4446654282485 455.81004134807824 1005.4446654282485 520.7183871948082
z"
            fill="none" stroke="none"></path>
        <use xlink:href="#path-iu6wx4vx0df-2" x="0" y="0" stroke="#aabbcc">
            <animateMotion begin="-9.008928227777984s" dur="10s" keyPoints="1;0" keyTimes="0;1"
                repeatCount="indefinite" calcMode="linear">
                <mpath xlink:href="#path32"></mpath>
            </animateMotion>
        </use>
        <path id="path33"
            d="M 1010.729980498571 606.1357171007664
c 0 60.13004460782048 -14.712670489147563 17.27139579160801 -31.98406628075557 17.27139579160801
S 946.7618479370599 666.265761708587 946.7618479370599 606.1357171007664
s 14.712670489147563 -17.27139579160801 31.98406628075557 -17.27139579160801
S 1010.729980498571 546.0056724929459 1010.729980498571 606.1357171007664
z"
            fill="none" stroke="none"></path>
        <use xlink:href="#path-iu6wx4vx0df-2" x="0" y="0" stroke="#ddeeff">
            <animateMotion begin="-1.538131630308044s" dur="10s" keyPoints="0;1" keyTimes="0;1"
                repeatCount="indefinite" calcMode="linear">
                <mpath xlink:href="#path33"></mpath>
            </animateMotion>
        </use>
        <path id="path34"
            d="M 1024.5069555897398 779.895751202037
c 0 34.35713951486076 -8.406534136614866 9.868540073417453 -18.27507421003232 9.868540073417453
S 987.9568071696752 814.2528907168978 987.9568071696752 779.895751202037
s 8.406534136614866 -9.868540073417453 18.27507421003232 -9.868540073417453
S 1024.5069555897398 745.5386116871762 1024.5069555897398 779.895751202037
z"
            fill="none" stroke="none"></path>
        <use xlink:href="#path-iu6wx4vx0df-1" x="0" y="0" stroke="#bbddff">
            <animateMotion begin="-8.301038045789038s" dur="10s" keyPoints="0;1" keyTimes="0;1"
                repeatCount="indefinite" calcMode="linear">
                <mpath xlink:href="#path34"></mpath>
            </animateMotion>
        </use>
        <path id="path35"
            d="M 1061.1943491563025 615.410216759757
c 0 48.47699894691742 -11.861393359352133 13.924244378369897 -25.78563773772203 13.924244378369897
S 1009.6230736808584 663.8872157066744 1009.6230736808584 615.410216759757
s 11.861393359352133 -13.924244378369897 25.78563773772203 -13.924244378369897
S 1061.1943491563025 566.9332178128395 1061.1943491563025 615.410216759757
z"
            fill="none" stroke="none"></path>
        <use xlink:href="#path-iu6wx4vx0df-3" x="0" y="0" stroke="#aabbcc">
            <animateMotion begin="-3.7251230058314078s" dur="10s" keyPoints="0;1" keyTimes="0;1"
                repeatCount="indefinite" calcMode="linear">
                <mpath xlink:href="#path35"></mpath>
            </animateMotion>
        </use>
        <path id="path36"
            d="M 1076.6124401461686 802.8378747209988
c 0 23.93176260244208 -5.855644041023062 6.8740169177227255 -12.729660958745788 6.8740169177227255
S 1051.153118228677 826.7696373234409 1051.153118228677 802.8378747209988
s 5.855644041023062 -6.8740169177227255 12.729660958745788 -6.8740169177227255
S 1076.6124401461686 778.9061121185567 1076.6124401461686 802.8378747209988
z"
            fill="none" stroke="none"></path>
        <use xlink:href="#path-iu6wx4vx0df-2" x="0" y="0" stroke="#ddeeff">
            <animateMotion begin="-1.5963244446728342s" dur="10s" keyPoints="0;1" keyTimes="0;1"
                repeatCount="indefinite" calcMode="linear">
                <mpath xlink:href="#path36"></mpath>
            </animateMotion>
        </use>
        <path id="path37"
            d="M 1143.1902162045938 628.191872653701
c 0 47.49288035311738 -11.6205983842734 13.641572016320948 -25.26217040059435 13.641572016320948
S 1092.665875403405 675.6847530068184 1092.665875403405 628.191872653701
s 11.6205983842734 -13.641572016320948 25.26217040059435 -13.641572016320948
S 1143.1902162045938 580.6989923005837 1143.1902162045938 628.191872653701
z"
            fill="none" stroke="none"></path>
        <use xlink:href="#path-iu6wx4vx0df-3" x="0" y="0" stroke="#ddeeff">
            <animateMotion begin="-1.7800806703839211s" dur="10s" keyPoints="1;0" keyTimes="0;1"
                repeatCount="indefinite" calcMode="linear">
                <mpath xlink:href="#path37"></mpath>
            </animateMotion>
        </use>
        <path id="path38"
            d="M 1158.6930379148694 364.22611443220416
c 0 60.19469646294701 -14.728489560082776 17.289966005314568 -32.018455565397346 17.289966005314568
S 1094.6561267840748 424.42081089515113 1094.6561267840748 364.22611443220416
s 14.728489560082776 -17.289966005314568 32.018455565397346 -17.289966005314568
S 1158.6930379148694 304.0314179692572 1158.6930379148694 364.22611443220416
z"
            fill="none" stroke="none"></path>
        <use xlink:href="#path-iu6wx4vx0df-3" x="0" y="0" stroke="#bbddff">
            <animateMotion begin="-1.2983148435258696s" dur="10s" keyPoints="0;1" keyTimes="0;1"
                repeatCount="indefinite" calcMode="linear">
                <mpath xlink:href="#path38"></mpath>
            </animateMotion>
        </use>
        <path id="path39"
            d="M 1166.8066601135388 369.730845244854
c 0 19.26474306663429 -4.713713729070091 5.5334900297779335 -10.247203758848025 5.5334900297779335
S 1146.312252595843 388.9955883114883 1146.312252595843 369.730845244854
s 4.713713729070091 -5.5334900297779335 10.247203758848025 -5.5334900297779335
S 1166.8066601135388 350.46610217821967 1166.8066601135388 369.730845244854
z"
            fill="none" stroke="none"></path>
        <use xlink:href="#path-iu6wx4vx0df-2" x="0" y="0" stroke="#aabbcc">
            <animateMotion begin="-2.085670969609479s" dur="10s" keyPoints="1;0" keyTimes="0;1"
                repeatCount="indefinite" calcMode="linear">
                <mpath xlink:href="#path39"></mpath>
            </animateMotion>
        </use>
        <path id="path40"
            d="M 1215.0720440874188 639.6477584364035
c 0 22.95582044874116 -5.6168496842664535 6.593693107617143 -12.210542791883597 6.593693107617143
S 1190.6509585036515 662.6035788851447 1190.6509585036515 639.6477584364035
s 5.6168496842664535 -6.593693107617143 12.210542791883597 -6.593693107617143
S 1215.0720440874188 616.6919379876623 1215.0720440874188 639.6477584364035
z"
            fill="none" stroke="none"></path>
        <use xlink:href="#path-iu6wx4vx0df-3" x="0" y="0" stroke="#aabbcc">
            <animateMotion begin="-7.330080259819756s" dur="10s" keyPoints="0;1" keyTimes="0;1"
                repeatCount="indefinite" calcMode="linear">
                <mpath xlink:href="#path40"></mpath>
            </animateMotion>
        </use>
        <path id="path41"
            d="M 1259.7637724747894 310.65035524878834
c 0 63.43343893909829 -15.520947825524047 18.220243099528233 -33.74119092505228 18.220243099528233
S 1192.281390624685 374.0837941878866 1192.281390624685 310.65035524878834
s 15.520947825524047 -18.220243099528233 33.74119092505228 -18.220243099528233
S 1259.7637724747894 247.21691630969005 1259.7637724747894 310.65035524878834
z"
            fill="none" stroke="none"></path>
        <use xlink:href="#path-iu6wx4vx0df-3" x="0" y="0" stroke="#aabbcc">
            <animateMotion begin="-8.773844906942323s" dur="10s" keyPoints="0;1" keyTimes="0;1"
                repeatCount="indefinite" calcMode="linear">
                <mpath xlink:href="#path41"></mpath>
            </animateMotion>
        </use>
        <path id="path42"
            d="M 1251.7515207062793 30.763509290636666
c 0 25.74475289362902 -6.299248048441142 7.394769448170037 -13.69401749661118 7.394769448170037
S 1224.363485713057 56.50826218426569 1224.363485713057 30.763509290636666
s 6.299248048441142 -7.394769448170037 13.69401749661118 -7.394769448170037
S 1251.7515207062793 5.018756397007646 1251.7515207062793 30.763509290636666
z"
            fill="none" stroke="none"></path>
        <use xlink:href="#path-iu6wx4vx0df-1" x="0" y="0" stroke="#ddeeff">
            <animateMotion begin="-6.415557393481032s" dur="10s" keyPoints="1;0" keyTimes="0;1"
                repeatCount="indefinite" calcMode="linear">
                <mpath xlink:href="#path42"></mpath>
            </animateMotion>
        </use>
        <path id="path43"
            d="M 1308.4806658780199 681.8386056971146
c 0 31.02708611341839 -7.591733836261946 8.912035373003155 -16.5037692092651 8.912035373003155
S 1275.4731274594897 712.865691810533 1275.4731274594897 681.8386056971146
s 7.591733836261946 -8.912035373003155 16.5037692092651 -8.912035373003155
S 1308.4806658780199 650.8115195836963 1308.4806658780199 681.8386056971146
z"
            fill="none" stroke="none"></path>
        <use xlink:href="#path-iu6wx4vx0df-3" x="0" y="0" stroke="#aabbcc">
            <animateMotion begin="-3.68235994397619s" dur="10s" keyPoints="0;1" keyTimes="0;1"
                repeatCount="indefinite" calcMode="linear">
                <mpath xlink:href="#path43"></mpath>
            </animateMotion>
        </use>
        <path id="path44"
            d="M 1315.2788365935094 979.106850032422
c 0 24.395247462076153 -5.969049910933526 7.007145547617619 -12.976195458551146 7.007145547617619
S 1289.3264456764073 1003.5020974944981 1289.3264456764073 979.106850032422
s 5.969049910933526 -7.007145547617619 12.976195458551146 -7.007145547617619
S 1315.2788365935094 954.7116025703459 1315.2788365935094 979.106850032422
z"
            fill="none" stroke="none"></path>
        <use xlink:href="#path-iu6wx4vx0df-3" x="0" y="0" stroke="#aabbcc">
            <animateMotion begin="-6.34008292536671s" dur="10s" keyPoints="0;1" keyTimes="0;1"
                repeatCount="indefinite" calcMode="linear">
                <mpath xlink:href="#path44"></mpath>
            </animateMotion>
        </use>
        <path id="path45"
            d="M 1363.2244657953154 736.3490590972381
c 0 44.38007511843432 -10.858954550255204 12.747468385082199 -23.606422935337402 12.747468385082199
S 1316.0116199246406 780.7291342156724 1316.0116199246406 736.3490590972381
s 10.858954550255204 -12.747468385082199 23.606422935337402 -12.747468385082199
S 1363.2244657953154 691.9689839788037 1363.2244657953154 736.3490590972381
z"
            fill="none" stroke="none"></path>
        <use xlink:href="#path-iu6wx4vx0df-3" x="0" y="0" stroke="#ddeeff">
            <animateMotion begin="-2.9931578901265055s" dur="10s" keyPoints="0;1" keyTimes="0;1"
                repeatCount="indefinite" calcMode="linear">
                <mpath xlink:href="#path45"></mpath>
            </animateMotion>
        </use>
        <path id="path46"
            d="M 1401.312271541682 988.9937518157343
c 0 49.57049438202818 -12.128950753049446 14.238333492710224 -26.36728424575967 14.238333492710224
S 1348.5777030501627 1038.5642461977625 1348.5777030501627 988.9937518157343
s 12.128950753049446 -14.238333492710224 26.36728424575967 -14.238333492710224
S 1401.312271541682 939.4232574337061 1401.312271541682 988.9937518157343
z"
            fill="none" stroke="none"></path>
        <use xlink:href="#path-iu6wx4vx0df-3" x="0" y="0" stroke="#bbddff">
            <animateMotion begin="-3.7694885912906373s" dur="10s" keyPoints="1;0" keyTimes="0;1"
                repeatCount="indefinite" calcMode="linear">
                <mpath xlink:href="#path46"></mpath>
            </animateMotion>
        </use>
        <path id="path47"
            d="M 1391.793664006654 920.2297069192416
c 0 26.260887494349916 -6.4255363018090215 7.543020876036678 -13.9685571778457 7.543020876036678
S 1363.8565496509625 946.4905944135916 1363.8565496509625 920.2297069192416
s 6.4255363018090215 -7.543020876036678 13.9685571778457 -7.543020876036678
S 1391.793664006654 893.9688194248916 1391.793664006654 920.2297069192416
z"
            fill="none" stroke="none"></path>
        <use xlink:href="#path-iu6wx4vx0df-3" x="0" y="0" stroke="#aabbcc">
            <animateMotion begin="-0.7741069262074918s" dur="10s" keyPoints="0;1" keyTimes="0;1"
                repeatCount="indefinite" calcMode="linear">
                <mpath xlink:href="#path47"></mpath>
            </animateMotion>
        </use>
        <path id="path48"
            d="M 1453.6481144237407 574.7886205196075
c 0 60.41733271253037 -14.782964387108493 17.353914715301276 -32.13687910240977 17.353914715301276
S 1389.3743562189213 635.205953232138 1389.3743562189213 574.7886205196075
s 14.782964387108493 -17.353914715301276 32.13687910240977 -17.353914715301276
S 1453.6481144237407 514.3712878070771 1453.6481144237407 574.7886205196075
z"
            fill="none" stroke="none"></path>
        <use xlink:href="#path-iu6wx4vx0df-1" x="0" y="0" stroke="#aabbcc">
            <animateMotion begin="-1.8818073187026796s" dur="10s" keyPoints="1;0" keyTimes="0;1"
                repeatCount="indefinite" calcMode="linear">
                <mpath xlink:href="#path48"></mpath>
            </animateMotion>
        </use>
        <path id="path49"
            d="M 1486.892665593335 893.9465762252208
c 0 57.64856127468787 -14.105499035295967 16.558629302303963 -30.664128337599934 16.558629302303963
S 1425.564408918135 951.5951374999087 1425.564408918135 893.9465762252208
s 14.105499035295967 -16.558629302303963 30.664128337599934 -16.558629302303963
S 1486.892665593335 836.298014950533 1486.892665593335 893.9465762252208
z"
            fill="none" stroke="none"></path>
        <use xlink:href="#path-iu6wx4vx0df-2" x="0" y="0" stroke="#bbddff">
            <animateMotion begin="-7.224998418787536s" dur="10s" keyPoints="1;0" keyTimes="0;1"
                repeatCount="indefinite" calcMode="linear">
                <mpath xlink:href="#path49"></mpath>
            </animateMotion>
        </use>
        <path id="path50"
            d="M 1508.0818121527668 568.8375082600152
c 0 59.512977409415285 -14.561685961878206 17.094153085683114 -31.655839047561322 17.094153085683114
S 1444.770134057644 628.3504856694304 1444.770134057644 568.8375082600152
s 14.561685961878206 -17.094153085683114 31.655839047561322 -17.094153085683114
S 1508.0818121527668 509.3245308505999 1508.0818121527668 568.8375082600152
z"
            fill="none" stroke="none"></path>
        <use xlink:href="#path-iu6wx4vx0df-3" x="0" y="0" stroke="#ddeeff">
            <animateMotion begin="-2.2525721131288834s" dur="10s" keyPoints="1;0" keyTimes="0;1"
                repeatCount="indefinite" calcMode="linear">
                <mpath xlink:href="#path50"></mpath>
            </animateMotion>
        </use>
        <path id="path51"
            d="M 1533.8609945967426 170.96120938512263
c 0 57.629215195599784 -14.100765420199945 16.553072449799938 -30.653837869999883 16.553072449799938
S 1472.5533188567426 228.5904245807224 1472.5533188567426 170.96120938512263
s 14.100765420199945 -16.553072449799938 30.653837869999883 -16.553072449799938
S 1533.8609945967426 113.33199418952285 1533.8609945967426 170.96120938512263
z"
            fill="none" stroke="none"></path>
        <use xlink:href="#path-iu6wx4vx0df-2" x="0" y="0" stroke="#ddeeff">
            <animateMotion begin="-1.2865823059855397s" dur="10s" keyPoints="0;1" keyTimes="0;1"
                repeatCount="indefinite" calcMode="linear">
                <mpath xlink:href="#path51"></mpath>
            </animateMotion>
        </use>
        <path id="path52"
            d="M 1537.2890489607826 947.240661827964
c 0 31.558418963996235 -7.721740810339503 9.06465225561594 -16.786393065955444 9.06465225561594
S 1503.7162628288715 978.7990807919603 1503.7162628288715 947.240661827964
s 7.721740810339503 -9.06465225561594 16.786393065955444 -9.06465225561594
S 1537.2890489607826 915.6822428639678 1537.2890489607826 947.240661827964
z"
            fill="none" stroke="none"></path>
        <use xlink:href="#path-iu6wx4vx0df-1" x="0" y="0" stroke="#ddeeff">
            <animateMotion begin="-8.072334416086957s" dur="10s" keyPoints="0;1" keyTimes="0;1"
                repeatCount="indefinite" calcMode="linear">
                <mpath xlink:href="#path52"></mpath>
            </animateMotion>
        </use>
        <path id="path53"
            d="M 1589.8755547219503 1007.9545451605001
c 0 44.68731743657882 -10.934130862141625 12.835718838166258 -23.769849700307883 12.835718838166258
S 1542.3358553213343 1052.641862597079 1542.3358553213343 1007.9545451605001
s 10.934130862141625 -12.835718838166258 23.769849700307883 -12.835718838166258
S 1589.8755547219503 963.2672277239212 1589.8755547219503 1007.9545451605001
z"
            fill="none" stroke="none"></path>
        <use xlink:href="#path-iu6wx4vx0df-1" x="0" y="0" stroke="#bbddff">
            <animateMotion begin="-2.079183897989987s" dur="10s" keyPoints="1;0" keyTimes="0;1"
                repeatCount="indefinite" calcMode="linear">
                <mpath xlink:href="#path53"></mpath>
            </animateMotion>
        </use>
        <path id="path54"
            d="M 1639.2974590757929 913.2845755291141
c 0 58.825854887838055 -14.393560238513563 16.896788106081143 -31.290348344594708 16.896788106081143
S 1576.7167623866032 972.1104304169522 1576.7167623866032 913.2845755291141
s 14.393560238513563 -16.896788106081143 31.290348344594708 -16.896788106081143
S 1639.2974590757929 854.458720641276 1639.2974590757929 913.2845755291141
z"
            fill="none" stroke="none"></path>
        <use xlink:href="#path-iu6wx4vx0df-3" x="0" y="0" stroke="#aabbcc">
            <animateMotion begin="-1.0336414138051642s" dur="10s" keyPoints="1;0" keyTimes="0;1"
                repeatCount="indefinite" calcMode="linear">
                <mpath xlink:href="#path54"></mpath>
            </animateMotion>
        </use>
        <path id="path55"
            d="M 1634.818620101404 41.61961559346661
c 0 21.66059443875028 -5.299932681821876 6.2216601047474205 -11.521592786569297 6.2216601047474205
S 1611.7754345282654 63.28021003221689 1611.7754345282654 41.61961559346661
s 5.299932681821876 -6.2216601047474205 11.521592786569297 -6.2216601047474205
S 1634.818620101404 19.959021154716332 1634.818620101404 41.61961559346661
z"
            fill="none" stroke="none"></path>
        <use xlink:href="#path-iu6wx4vx0df-2" x="0" y="0" stroke="#ddeeff">
            <animateMotion begin="-5.8971122104625024s" dur="10s" keyPoints="0;1" keyTimes="0;1"
                repeatCount="indefinite" calcMode="linear">
                <mpath xlink:href="#path55"></mpath>
            </animateMotion>
        </use>
        <path id="path56"
            d="M 1672.1308208013786 653.8454103305206
c 0 26.206638599304505 -6.412262636000038 7.52743874660874 -13.939701382608778 7.52743874660874
S 1644.251418036161 680.0520489298251 1644.251418036161 653.8454103305206
s 6.412262636000038 -7.52743874660874 13.939701382608778 -7.52743874660874
S 1672.1308208013786 627.6387717312161 1672.1308208013786 653.8454103305206
z"
            fill="none" stroke="none"></path>
        <use xlink:href="#path-iu6wx4vx0df-1" x="0" y="0" stroke="#ddeeff">
            <animateMotion begin="-3.8850575796542253s" dur="10s" keyPoints="1;0" keyTimes="0;1"
                repeatCount="indefinite" calcMode="linear">
                <mpath xlink:href="#path56"></mpath>
            </animateMotion>
        </use>
        <path id="path57"
            d="M 1693.884627805984 101.63123672856882
c 0 21.395740615894137 -5.235128023037927 6.145585070522784 -11.380713093560711 6.145585070522784
S 1671.1232016188628 123.02697734446296 1671.1232016188628 101.63123672856882
s 5.235128023037927 -6.145585070522784 11.380713093560711 -6.145585070522784
S 1693.884627805984 80.23549611267468 1693.884627805984 101.63123672856882
z"
            fill="none" stroke="none"></path>
        <use xlink:href="#path-iu6wx4vx0df-1" x="0" y="0" stroke="#bbddff">
            <animateMotion begin="-9.84828231045425s" dur="10s" keyPoints="1;0" keyTimes="0;1"
                repeatCount="indefinite" calcMode="linear">
                <mpath xlink:href="#path57"></mpath>
            </animateMotion>
        </use>
        <path id="path58"
            d="M 1712.450318662702 518.7228911175442
c 0 19.90892082071506 -4.871331690174961 5.7185198102053905 -10.589851500380352 5.7185198102053905
S 1691.2706156619415 538.6318119382593 1691.2706156619415 518.7228911175442
s 4.871331690174961 -5.7185198102053905 10.589851500380352 -5.7185198102053905
S 1712.450318662702 498.81397029682915 1712.450318662702 518.7228911175442
z"
            fill="none" stroke="none"></path>
        <use xlink:href="#path-iu6wx4vx0df-3" x="0" y="0" stroke="#bbddff">
            <animateMotion begin="-1.4966800797794266s" dur="10s" keyPoints="0;1" keyTimes="0;1"
                repeatCount="indefinite" calcMode="linear">
                <mpath xlink:href="#path58"></mpath>
            </animateMotion>
        </use>
        <path id="path59"
            d="M 1779.7640485246018 993.2501868993181
c 0 62.40557908955459 -15.269450202763355 17.925006759765683 -33.19445696252904 17.925006759765683
S 1713.3751345995436 1055.6557659888726 1713.3751345995436 993.2501868993181
s 15.269450202763355 -17.925006759765683 33.19445696252904 -17.925006759765683
S 1779.7640485246018 930.8446078097635 1779.7640485246018 993.2501868993181
z"
            fill="none" stroke="none"></path>
        <use xlink:href="#path-iu6wx4vx0df-2" x="0" y="0" stroke="#ddeeff">
            <animateMotion begin="-8.935575633712604s" dur="10s" keyPoints="0;1" keyTimes="0;1"
                repeatCount="indefinite" calcMode="linear">
                <mpath xlink:href="#path59"></mpath>
            </animateMotion>
        </use>
        <path id="path60"
            d="M 1787.7394446020346 395.72089508392725
c 0 39.05197550940009 -9.55527060336385 11.217056795253216 -20.772327398617065 11.217056795253216
S 1746.1947898048004 434.77287059332735 1746.1947898048004 395.72089508392725
s 9.55527060336385 -11.217056795253216 20.772327398617065 -11.217056795253216
S 1787.7394446020346 356.66891957452714 1787.7394446020346 395.72089508392725
z"
            fill="none" stroke="none"></path>
        <use xlink:href="#path-iu6wx4vx0df-2" x="0" y="0" stroke="#aabbcc">
            <animateMotion begin="-9.441614698748202s" dur="10s" keyPoints="0;1" keyTimes="0;1"
                repeatCount="indefinite" calcMode="linear">
                <mpath xlink:href="#path60"></mpath>
            </animateMotion>
        </use>
        <path id="path61"
            d="M 1819.7241991617411 413.97096304861583
c 0 27.46192674473534 -6.719407607754391 7.888000235189938 -14.60740784294433 7.888000235189938
S 1790.5093834758522 441.4328897933512 1790.5093834758522 413.97096304861583
s 6.719407607754391 -7.888000235189938 14.60740784294433 -7.888000235189938
S 1819.7241991617411 386.50903630388046 1819.7241991617411 413.97096304861583
z"
            fill="none" stroke="none"></path>
        <use xlink:href="#path-iu6wx4vx0df-1" x="0" y="0" stroke="#aabbcc">
            <animateMotion begin="-3.1289017694910237s" dur="10s" keyPoints="1;0" keyTimes="0;1"
                repeatCount="indefinite" calcMode="linear">
                <mpath xlink:href="#path61"></mpath>
            </animateMotion>
        </use>
        <path id="path62"
            d="M 1844.4220947917556 329.0348243806696
c 0 33.8608680721609 -8.285106017656389 9.725994020727066 -18.011100038383457 9.725994020727066
S 1808.399894714989 362.8956924528305 1808.399894714989 329.0348243806696
s 8.285106017656389 -9.725994020727066 18.011100038383457 -9.725994020727066
S 1844.4220947917556 295.1739563085087 1844.4220947917556 329.0348243806696
z"
            fill="none" stroke="none"></path>
        <use xlink:href="#path-iu6wx4vx0df-2" x="0" y="0" stroke="#aabbcc">
            <animateMotion begin="-6.726132839186474s" dur="10s" keyPoints="1;0" keyTimes="0;1"
                repeatCount="indefinite" calcMode="linear">
                <mpath xlink:href="#path62"></mpath>
            </animateMotion>
        </use>
        <path id="path63"
            d="M 1872.741345832404 336.756207898485
c 0 65.44929551834703 -16.01418932895725 18.7992657339933 -34.81345506295055 18.7992657339933
S 1803.1144357065027 402.205503416832 1803.1144357065027 336.756207898485
s 16.01418932895725 -18.7992657339933 34.81345506295055 -18.7992657339933
S 1872.741345832404 271.306912380138 1872.741345832404 336.756207898485
z"
            fill="none" stroke="none"></path>
        <use xlink:href="#path-iu6wx4vx0df-2" x="0" y="0" stroke="#aabbcc">
            <animateMotion begin="-8.796173624759229s" dur="10s" keyPoints="1;0" keyTimes="0;1"
                repeatCount="indefinite" calcMode="linear">
                <mpath xlink:href="#path63"></mpath>
            </animateMotion>
        </use>
        <path id="path64"
            d="M 1881.09145491263 76.00716234430857
c 0 25.70395957875421 -6.289266705439859 7.383052219429401 -13.67231892486926 7.383052219429401
S 1853.7468170628918 101.71112192306278 1853.7468170628918 76.00716234430857
s 6.289266705439859 -7.383052219429401 13.67231892486926 -7.383052219429401
S 1881.09145491263 50.30320276555436 1881.09145491263 76.00716234430857
z"
            fill="none" stroke="none"></path>
        <use xlink:href="#path-iu6wx4vx0df-2" x="0" y="0" stroke="#aabbcc">
            <animateMotion begin="-0.20840869375740478s" dur="10s" keyPoints="1;0" keyTimes="0;1"
                repeatCount="indefinite" calcMode="linear">
                <mpath xlink:href="#path64"></mpath>
            </animateMotion>
        </use>
    </g>
</svg>